<?xml version="1.0" encoding="UTF-8" standalone="no"?>
<!-- Created with Inkscape (http://www.inkscape.org/) -->

<svg
   xmlns:dc="http://purl.org/dc/elements/1.1/"
   xmlns:cc="http://creativecommons.org/ns#"
   xmlns:rdf="http://www.w3.org/1999/02/22-rdf-syntax-ns#"
   xmlns:svg="http://www.w3.org/2000/svg"
   xmlns="http://www.w3.org/2000/svg"
   xmlns:sodipodi="http://sodipodi.sourceforge.net/DTD/sodipodi-0.dtd"
   xmlns:inkscape="http://www.inkscape.org/namespaces/inkscape"
   width="630.26672"
   height="190.98013"
   id="svg2"
   version="1.1"
   inkscape:version="0.48.4 r9939"
   sodipodi:docname="TinyDNN-logo&amp;letters-final-B&amp;W.svg"
   inkscape:export-filename="/home/albert/Escriptori/tiny/FINAL LOGO/TinyDNN-logo&amp;letters-final-B&amp;W.png"
   inkscape:export-xdpi="90"
   inkscape:export-ydpi="90">
  <defs
     id="defs4" />
  <sodipodi:namedview
     id="base"
     pagecolor="#ffffff"
     bordercolor="#666666"
     borderopacity="1.0"
     inkscape:pageopacity="0.0"
     inkscape:pageshadow="2"
     inkscape:zoom="0.98994949"
     inkscape:cx="303.74604"
     inkscape:cy="146.52394"
     inkscape:document-units="px"
     inkscape:current-layer="g4007"
     showgrid="false"
     showguides="true"
     fit-margin-top="0"
     fit-margin-left="0"
     fit-margin-right="0"
     fit-margin-bottom="0"
     inkscape:guide-bbox="true"
     inkscape:window-width="1024"
     inkscape:window-height="713"
     inkscape:window-x="0"
     inkscape:window-y="27"
     inkscape:window-maximized="1">
    <inkscape:grid
       type="xygrid"
       id="grid2985"
       empspacing="5"
       visible="true"
       enabled="true"
       snapvisiblegridlinesonly="true"
       originx="67.052319px"
       originy="-657.48385px" />
  </sodipodi:namedview>
  <metadata
     id="metadata7">
    <rdf:RDF>
      <cc:Work
         rdf:about="">
        <dc:format>image/svg+xml</dc:format>
        <dc:type
           rdf:resource="http://purl.org/dc/dcmitype/StillImage" />
        <dc:title />
      </cc:Work>
    </rdf:RDF>
  </metadata>
  <g
     inkscape:label="Capa 1"
     inkscape:groupmode="layer"
     id="capa1"
     transform="translate(67.052319,-203.8981)">
    <g
       id="g4007">
      <flowRoot
         transform="translate(79.691507,-325.95823)"
         style="font-size:300px;font-style:normal;font-variant:normal;font-weight:normal;font-stretch:normal;line-height:125%;letter-spacing:0px;word-spacing:0px;fill:#000000;fill-opacity:1;stroke:none;font-family:Wingdings;-inkscape-font-specification:Wingdings"
         id="flowRoot3866"
         xml:space="preserve"><flowRegion
           id="flowRegion3868"><rect
             style="font-size:300px;font-style:normal;font-variant:normal;font-weight:normal;font-stretch:normal;font-family:Wingdings;-inkscape-font-specification:Wingdings"
             y="399.10431"
             x="-288.90363"
             height="412.14224"
             width="1264.7111"
             id="rect3870" /></flowRegion><flowPara
           id="flowPara3872"><flowSpan
             id="flowSpan3874"
             style="font-style:normal;font-variant:normal;font-weight:normal;font-stretch:normal;line-height:162.00000048%;letter-spacing:-12.17000008px;fill:#008080;font-family:K1FS;-inkscape-font-specification:K1FS">tiny  </flowSpan><flowSpan
             style="font-style:normal;font-variant:normal;font-weight:normal;font-stretch:normal;line-height:162.00000048%;letter-spacing:-12.17000008px;fill:#000000;font-family:K1FS;-inkscape-font-specification:K1FS"
             id="flowSpan3057">dn</flowSpan><flowSpan
             id="flowSpan3039"
             style="font-style:normal;font-variant:normal;font-weight:normal;font-stretch:normal;line-height:162.00000048%;letter-spacing:-12.17000008px;fill:#000000;font-family:K1FS;-inkscape-font-specification:K1FS">n   </flowSpan></flowPara></flowRoot>      <path
         style="fill:#000000;stroke:#000000;stroke-width:14;stroke-linecap:butt;stroke-linejoin:miter;stroke-miterlimit:0;stroke-opacity:1;stroke-dasharray:none"
         d="m 170.69993,311.80453 45,0.71428"
         id="path4697"
         inkscape:connector-curvature="0" />
      <path
         id="path3793"
         style="font-size:40px;font-style:normal;font-weight:normal;line-height:125%;letter-spacing:0px;word-spacing:0px;fill:#000000;fill-opacity:1;stroke:none;font-family:Sans"
         d="m -53.052319,323.07823 0,-49.2 24,0 0,-12.4 -24,0 0,-22.6 -14,0 0,84.2 c 0,11.39999 6e-6,19.00001 5.6,26 4.399996,5.59999 11.800009,9.2 20.6,9.2 7.199993,0 13.600005,-2.4 19,-5.2 l -6,-11.8 c -4.599995,2.4 -9.200004,3.8 -13,3.8 -4.399996,0 -7.400002,-1.6 -9.4,-4 -2.799997,-3.6 -2.8,-7.20001 -2.8,-18"
         inkscape:connector-curvature="0" />
      <path
         id="path3795"
         style="font-size:40px;font-style:normal;font-weight:normal;line-height:125%;letter-spacing:0px;word-spacing:0px;fill:#000000;fill-opacity:1;stroke:none;font-family:Sans"
         d="m -2.7616963,227.27823 c -5.3999946,0 -9.3999997,3.8 -9.3999997,9.4 0,5.59999 4.0000051,9.4 9.3999997,9.4 5.3999943,0 9.4000003,-3.80001 9.4000003,-9.4 0,-5.6 -4.000006,-9.4 -9.4000003,-9.4 m -7,129.8 14.0000003,0 0,-95.6 -14.0000003,0 0,95.6"
         inkscape:connector-curvature="0" />
      <path
         id="path3799"
         style="font-size:40px;font-style:normal;font-weight:normal;line-height:125%;letter-spacing:0px;word-spacing:0px;fill:#000000;fill-opacity:1;stroke:none;font-family:Sans"
         d="m 56.482051,260.27823 c -12.199987,0 -20.800004,5.2 -25.6,10.2 -9.39999,9.79999 -9.4,21.40001 -9.4,35.4 l 0,51.2 14,0 0,-51.2 c 0,-12.39999 6e-6,-20.80001 5.8,-26.6 3.399997,-3.4 8.600007,-5.8 15.2,-5.8 6.599994,0 11.800004,2.4 15.2,5.8 5.799995,5.79999 5.8,14.20001 5.8,26.6 l 0,51.2 14,0 0,-51.2 c 0,-13.99999 -1e-5,-25.60001 -9.4,-35.4 -4.799995,-5 -13.400012,-10.2 -25.6,-10.2"
         inkscape:connector-curvature="0" />
      <path
         id="path3802"
         style="font-size:40px;font-style:normal;font-weight:normal;line-height:125%;letter-spacing:0px;word-spacing:0px;fill:#000000;fill-opacity:1;stroke:none;font-family:Sans"
         d="m 97.116431,261.47823 20.199999,67.4 c 4.39999,14.39998 5.2,18 8.2,22 2.79999,3.59999 7.4,6.2 13,7 -2.8,12.99999 -4.00001,17.6 -6.8,20.4 -2.2,2.2 -4.80001,3.4 -8.6,3.4 -3,0 -6.00001,-0.6 -9.2,-1.8 l -4.2,12.4 c 4.39999,1.6 9,2.6 13.4,2.6 8.39999,0 15.2,-3.80001 19.4,-8.6 4.39999,-5 6,-11.20001 8.2,-21 l 23,-103.8 -14.4,0 -18,83.4 c -2,-0.2 -4,-0.6 -5.2,-2.4 -1.2,-1.8 -2.60001,-6.20001 -5.6,-16.6 l -18.8,-64.4 -14.599999,0"
         inkscape:connector-curvature="0" />
      <path
         id="path3804"
         style="font-size:200px;font-style:normal;font-variant:normal;font-weight:normal;font-stretch:normal;line-height:125%;letter-spacing:-6.60000134px;word-spacing:0px;fill:#000000;fill-opacity:1;stroke:none;font-family:Gidolinya;-inkscape-font-specification:Gidolinya"
         d="m 259.51018,260.27823 c -11.79999,0 -21.20001,4.80001 -27,11.8 -8.99999,10.79999 -9,24.00001 -9,37.6 0,12.19999 1e-5,26.20001 11.2,37.6 6.19999,6.19999 15.80001,11 27.8,11 12.59999,0 22.60001,-5.40001 28.2,-13.2 6.79999,-9.39999 6.8,-19.40002 6.8,-34.4 l 0,-86.8 -14,0 0,48.6 c -5.39999,-7.59999 -14.20001,-12.2 -24,-12.2 m 24,53 c 0,10.59999 0,19.2 -4.8,25 -4,4.79999 -10.00001,6.8 -16.2,6.8 -6.79999,0 -13.6,-2.40001 -18,-7.2 -6.99999,-7.59999 -7,-18.00001 -7,-28.2 0,-11.19999 1e-5,-22.20001 6,-29.2 3.6,-4.2 9.40001,-7 17,-7 7.59999,0 13.4,2.8 17,7 5.99999,6.99999 6,18.00001 6,32.8"
         inkscape:connector-curvature="0" />
      <path
         id="path3806"
         style="font-size:200px;font-style:normal;font-variant:normal;font-weight:normal;font-stretch:normal;line-height:125%;letter-spacing:-6.60000134px;word-spacing:0px;fill:#000000;fill-opacity:1;stroke:none;font-family:Gidolinya;-inkscape-font-specification:Gidolinya"
         d="m 348.0508,260.27823 c -12.19999,0 -20.80001,5.2 -25.6,10.2 -9.39999,9.79999 -9.4,21.40001 -9.4,35.4 l 0,51.2 14,0 0,-51.2 c 0,-12.39999 0,-20.80001 5.8,-26.6 3.4,-3.4 8.60001,-5.8 15.2,-5.8 6.59999,0 11.8,2.4 15.2,5.8 5.79999,5.79999 5.8,14.20001 5.8,26.6 l 0,51.2 14,0 0,-51.2 c 0,-13.99999 -10e-6,-25.60001 -9.4,-35.4 -4.8,-5 -13.40001,-10.2 -25.6,-10.2"
         inkscape:connector-curvature="0" />
      <path
         id="path3808"
         style="font-size:200px;font-style:normal;font-variant:normal;font-weight:normal;font-stretch:normal;line-height:125%;letter-spacing:-6.60000134px;word-spacing:0px;fill:#000000;fill-opacity:1;stroke:none;font-family:Gidolinya;-inkscape-font-specification:Gidolinya"
         d="m 433.63829,260.27823 c -12.19999,0 -20.8,5.2 -25.6,10.2 -9.39999,9.79999 -9.4,21.40001 -9.4,35.4 l 0,51.2 14,0 0,-51.2 c 0,-12.39999 1e-5,-20.80001 5.8,-26.6 3.4,-3.4 8.60001,-5.8 15.2,-5.8 6.6,0 11.80001,2.4 15.2,5.8 5.8,5.79999 5.8,14.20001 5.8,26.6 l 0,51.2 14,0 0,-51.2 c 0,-13.99999 -10e-6,-25.60001 -9.4,-35.4 -4.79999,-5 -13.40001,-10.2 -25.6,-10.2"
         inkscape:connector-curvature="0" />
      <g
         id="g3498">
        <path
           transform="matrix(0.07823882,0,0,0.07474929,478.71647,208.30864)"
           d="m 1079.9999,549.56696 a 581.42853,608.57141 0 1 1 -1162.857017,0 581.42853,608.57141 0 1 1 1162.857017,0 z"
           sodipodi:ry="608.57141"
           sodipodi:rx="581.42853"
           sodipodi:cy="549.56696"
           sodipodi:cx="498.57141"
           id="path3043-3"
           style="fill:#000000;fill-rule:evenodd;stroke:none"
           sodipodi:type="arc" />
        <g
           transform="matrix(0.07911353,0,0,0.07911353,491.93783,222.88626)"
           id="g4003">
          <path
             style="fill:none;stroke:#ffffff;stroke-width:32.10599899;stroke-linecap:butt;stroke-linejoin:miter;stroke-miterlimit:4;stroke-opacity:1;stroke-dasharray:none"
             d="M 535.33275,555.89637 C 545.91688,667.73421 471.5102,740.38986 324.80298,766.42604"
             id="path3044"
             inkscape:connector-curvature="0"
             sodipodi:nodetypes="cc" />
          <path
             sodipodi:nodetypes="cc"
             inkscape:connector-curvature="0"
             id="path3042"
             d="m 116.6337,555.89637 c -10.58412,111.83784 63.82254,184.49349 210.52977,210.52967"
             style="fill:none;stroke:#ffffff;stroke-width:32.10599899;stroke-linecap:butt;stroke-linejoin:miter;stroke-miterlimit:4;stroke-opacity:1;stroke-dasharray:none" />
          <path
             sodipodi:nodetypes="cc"
             inkscape:connector-curvature="0"
             id="path3040"
             d="M 535.438,124.73131 C 546.02214,12.893477 471.61547,-59.762188 324.90825,-85.798359"
             style="fill:none;stroke:#ffffff;stroke-width:32.10599899;stroke-linecap:butt;stroke-linejoin:miter;stroke-miterlimit:4;stroke-opacity:1;stroke-dasharray:none" />
          <path
             style="fill:#ffffff;stroke:#ffffff;stroke-width:9.47383976;stroke-linecap:butt;stroke-linejoin:miter;stroke-miterlimit:4;stroke-opacity:1;stroke-dasharray:none"
             d="M 748.223,339.15557 537.69324,128.62581"
             id="path3872"
             inkscape:connector-curvature="0" />
          <path
             style="fill:none;stroke:#ffffff;stroke-width:9.47383976;stroke-linecap:butt;stroke-linejoin:miter;stroke-miterlimit:4;stroke-opacity:1;stroke-dasharray:none"
             d="M -93.896065,339.15557 116.6337,128.62581"
             id="path3870"
             inkscape:connector-curvature="0" />
          <path
             style="fill:#ffffff;stroke:#ffffff;stroke-width:9.47383976;stroke-linecap:butt;stroke-linejoin:miter;stroke-miterlimit:4;stroke-opacity:1;stroke-dasharray:none"
             d="m 748.223,339.15559 -210.52976,0"
             id="path3812"
             inkscape:connector-curvature="0" />
          <path
             style="fill:none;stroke:#ffffff;stroke-width:32.10599899;stroke-linecap:butt;stroke-linejoin:miter;stroke-miterlimit:4;stroke-opacity:1;stroke-dasharray:none"
             d="m 537.69324,339.15559 -210.52977,0"
             id="path3810"
             inkscape:connector-curvature="0" />
          <path
             style="fill:none;stroke:#ffffff;stroke-width:32.10599899;stroke-linecap:butt;stroke-linejoin:miter;stroke-miterlimit:4;stroke-opacity:1;stroke-dasharray:none"
             d="m 327.16347,339.15559 -210.52977,0"
             id="path3807"
             inkscape:connector-curvature="0" />
          <path
             style="fill:#ffffff;stroke:#ffffff;stroke-width:9.47383976;stroke-linecap:butt;stroke-linejoin:miter;stroke-miterlimit:4;stroke-opacity:1;stroke-dasharray:none"
             d="m -93.896065,339.15559 210.529765,0"
             id="path3805"
             inkscape:connector-curvature="0" />
          <path
             style="fill:none;stroke:#ffffff;stroke-width:32.10599899;stroke-linecap:butt;stroke-linejoin:miter;stroke-miterlimit:4;stroke-opacity:1;stroke-dasharray:none"
             d="M 116.6337,124.73131 C 106.04958,12.893502 180.45624,-59.762163 327.16347,-85.798333"
             id="path3031"
             inkscape:connector-curvature="0"
             sodipodi:nodetypes="cc" />
          <path
             style="fill:#999999;stroke:#ffffff;stroke-width:9.47383976;stroke-linecap:butt;stroke-linejoin:miter;stroke-miterlimit:4;stroke-opacity:1;stroke-dasharray:none"
             d="M -93.896065,339.15559 116.6337,549.68536"
             id="path3797"
             inkscape:connector-curvature="0" />
          <path
             style="fill:#ffffff;stroke:#ffffff;stroke-width:9.47383976;stroke-linecap:butt;stroke-linejoin:miter;stroke-miterlimit:4;stroke-opacity:1;stroke-dasharray:none"
             d="M 748.223,339.15559 537.69324,549.68536"
             id="path3801"
             inkscape:connector-curvature="0" />
          <path
             style="fill:none;stroke:#ffffff;stroke-width:9.47383976;stroke-linecap:butt;stroke-linejoin:miter;stroke-miterlimit:4;stroke-opacity:1;stroke-dasharray:none"
             d="M 327.16347,339.15566 116.6337,128.62589"
             id="path3813"
             inkscape:connector-curvature="0" />
          <path
             style="fill:#ffffff;stroke:#ffffff;stroke-width:9.47383976;stroke-linecap:butt;stroke-linejoin:miter;stroke-miterlimit:4;stroke-opacity:1;stroke-dasharray:none"
             d="M 327.16347,339.15566 537.69324,128.62589"
             id="path3819"
             inkscape:connector-curvature="0" />
          <path
             style="fill:#ffffff;stroke:#ffffff;stroke-width:9.47383976;stroke-linecap:butt;stroke-linejoin:miter;stroke-miterlimit:4;stroke-opacity:1;stroke-dasharray:none"
             d="m 327.16347,339.15566 0,210.52976"
             id="path3039"
             inkscape:connector-curvature="0" />
          <path
             style="fill:#ffffff;stroke:#ffffff;stroke-width:9.47383976;stroke-linecap:butt;stroke-linejoin:miter;stroke-miterlimit:4;stroke-opacity:1;stroke-dasharray:none"
             d="m 327.16347,128.62589 0,210.52977"
             id="path3862"
             inkscape:connector-curvature="0" />
          <path
             style="fill:#ffffff;stroke:#ffffff;stroke-width:10.61509895;stroke-linecap:butt;stroke-linejoin:miter;stroke-miterlimit:4;stroke-opacity:1;stroke-dasharray:none"
             d="M 535.9435,130.37564 642.15428,24.16485"
             id="path3822"
             inkscape:connector-curvature="0" />
          <path
             style="fill:#000000;stroke:#ffffff;stroke-width:10.61509895;stroke-linecap:butt;stroke-linejoin:miter;stroke-miterlimit:4;stroke-opacity:1;stroke-dasharray:none"
             d="M 118.6975,130.68969 23.653158,35.645346"
             id="path3817"
             inkscape:connector-curvature="0" />
          <path
             style="fill:none;stroke:#ffffff;stroke-width:9.47383976;stroke-linecap:butt;stroke-linejoin:miter;stroke-miterlimit:4;stroke-opacity:1;stroke-dasharray:none"
             d="M 116.6337,549.68542 327.16347,339.15566"
             id="path3815"
             inkscape:connector-curvature="0" />
          <path
             style="fill:none;stroke:#ffffff;stroke-width:10.61509895;stroke-linecap:butt;stroke-linejoin:miter;stroke-miterlimit:4;stroke-opacity:1;stroke-dasharray:none"
             d="M 535.89863,547.89081 640.51421,652.50639"
             id="path3811"
             inkscape:connector-curvature="0" />
          <path
             style="fill:#ffffff;stroke:#ffffff;stroke-width:9.47383976;stroke-linecap:butt;stroke-linejoin:miter;stroke-miterlimit:4;stroke-opacity:1;stroke-dasharray:none"
             d="M 327.16347,339.15566 537.69324,549.68542"
             id="path3809"
             inkscape:connector-curvature="0" />
          <path
             style="fill:none;stroke:#ffffff;stroke-width:9.47383976;stroke-linecap:butt;stroke-linejoin:miter;stroke-miterlimit:4;stroke-opacity:1;stroke-dasharray:none"
             d="m 327.16347,-81.903877 0,210.529767"
             id="path3926"
             inkscape:connector-curvature="0" />
          <path
             style="fill:#ffffff;stroke:#ffffff;stroke-width:32.10599899;stroke-linecap:butt;stroke-linejoin:miter;stroke-miterlimit:4;stroke-opacity:1;stroke-dasharray:none"
             d="m 537.69324,128.62589 0,210.52977 0,210.52976"
             id="path3905"
             inkscape:connector-curvature="0" />
          <path
             style="fill:none;stroke:#ffffff;stroke-width:32.10599899;stroke-linecap:butt;stroke-linejoin:miter;stroke-miterlimit:4;stroke-opacity:1;stroke-dasharray:none"
             d="m 116.6337,128.62589 0,210.52977 0,210.52976"
             id="path3901"
             inkscape:connector-curvature="0" />
          <path
             style="fill:none;stroke:#ffffff;stroke-width:9.47383976;stroke-linecap:butt;stroke-linejoin:miter;stroke-miterlimit:4;stroke-opacity:1;stroke-dasharray:none"
             d="m 116.6337,549.68542 210.52977,0 210.52977,0"
             id="path3880"
             inkscape:connector-curvature="0" />
          <path
             style="fill:none;stroke:#ffffff;stroke-width:9.47383976;stroke-linecap:butt;stroke-linejoin:miter;stroke-miterlimit:4;stroke-opacity:1;stroke-dasharray:none"
             d="m 114.50703,128.62589 210.52977,0 210.52976,0"
             id="path3878"
             inkscape:connector-curvature="0" />
          <path
             style="fill:none;stroke:#ffffff;stroke-width:10.61509895;stroke-linecap:butt;stroke-linejoin:miter;stroke-miterlimit:4;stroke-opacity:1;stroke-dasharray:none"
             d="M 8.8473017,654.10195 118.33892,547.9802"
             id="path3868"
             inkscape:connector-curvature="0" />
          <path
             style="fill:none;stroke:#ffffff;stroke-width:9.47383976;stroke-linecap:butt;stroke-linejoin:miter;stroke-miterlimit:4;stroke-opacity:1;stroke-dasharray:none"
             d="m 327.16347,549.68542 0,210.52977"
             id="path3849"
             inkscape:connector-curvature="0" />
          <path
             sodipodi:type="arc"
             style="fill:#e6e6e6;fill-rule:evenodd;stroke:#ffffff;stroke-width:5;stroke-linecap:butt;stroke-linejoin:miter;stroke-miterlimit:4;stroke-opacity:1;stroke-dasharray:none"
             id="path2987"
             sodipodi:cx="180"
             sodipodi:cy="332.36218"
             sodipodi:rx="20"
             sodipodi:ry="20"
             d="m 200,332.36218 c 0,11.0457 -8.95431,20 -20,20 -11.04569,0 -20,-8.9543 -20,-20 0,-11.04569 8.95431,-20 20,-20 11.04569,0 20,8.95431 20,20 z"
             transform="matrix(1.0526488,0,0,1.0526488,137.68667,-9.2011782)" />
          <path
             transform="matrix(1.0526488,0,0,1.0526488,348.21644,-9.2011782)"
             d="m 200,332.36218 c 0,11.0457 -8.95431,20 -20,20 -11.04569,0 -20,-8.9543 -20,-20 0,-11.04569 8.95431,-20 20,-20 11.04569,0 20,8.95431 20,20 z"
             sodipodi:ry="20"
             sodipodi:rx="20"
             sodipodi:cy="332.36218"
             sodipodi:cx="180"
             id="path3757"
             style="fill:#ffffff;fill-rule:evenodd;stroke:#ffffff;stroke-width:5;stroke-linecap:butt;stroke-linejoin:miter;stroke-miterlimit:4;stroke-opacity:1;stroke-dasharray:none"
             sodipodi:type="arc" />
          <path
             transform="matrix(1.0526488,0,0,1.0526488,-74.346724,-9.2011782)"
             d="m 200,332.36218 c 0,11.0457 -8.95431,20 -20,20 -11.04569,0 -20,-8.9543 -20,-20 0,-11.04569 8.95431,-20 20,-20 11.04569,0 20,8.95431 20,20 z"
             sodipodi:ry="20"
             sodipodi:rx="20"
             sodipodi:cy="332.36218"
             sodipodi:cx="180"
             id="path3759"
             style="fill:#e6e6e6;fill-rule:evenodd;stroke:#ffffff;stroke-width:5;stroke-linecap:butt;stroke-linejoin:miter;stroke-miterlimit:4;stroke-opacity:1;stroke-dasharray:none"
             sodipodi:type="arc" />
          <path
             sodipodi:type="arc"
             style="fill:#ffffff;fill-rule:evenodd;stroke:#ffffff;stroke-width:5;stroke-linecap:butt;stroke-linejoin:miter;stroke-miterlimit:4;stroke-opacity:1;stroke-dasharray:none"
             id="path3761"
             sodipodi:cx="180"
             sodipodi:cy="332.36218"
             sodipodi:rx="20"
             sodipodi:ry="20"
             d="m 200,332.36218 c 0,11.0457 -8.95431,20 -20,20 -11.04569,0 -20,-8.9543 -20,-20 0,-11.04569 8.95431,-20 20,-20 11.04569,0 20,8.95431 20,20 z"
             transform="matrix(1.0526488,0,0,1.0526488,-281.86907,-9.2011782)" />
          <path
             sodipodi:type="arc"
             style="fill:#ffffff;fill-rule:evenodd;stroke:#ffffff;stroke-width:5;stroke-linecap:butt;stroke-linejoin:miter;stroke-miterlimit:4;stroke-opacity:1;stroke-dasharray:none"
             id="path3763"
             sodipodi:cx="180"
             sodipodi:cy="332.36218"
             sodipodi:rx="20"
             sodipodi:ry="20"
             d="m 200,332.36218 c 0,11.0457 -8.95431,20 -20,20 -11.04569,0 -20,-8.9543 -20,-20 0,-11.04569 8.95431,-20 20,-20 11.04569,0 20,8.95431 20,20 z"
             transform="matrix(1.0501635,0,0,1.0527952,560.64471,-9.2495701)" />
          <path
             transform="matrix(1.0526488,0,0,1.0526488,139.19046,-224.24229)"
             d="m 200,332.36218 c 0,11.0457 -8.95431,20 -20,20 -11.04569,0 -20,-8.9543 -20,-20 0,-11.04569 8.95431,-20 20,-20 11.04569,0 20,8.95431 20,20 z"
             sodipodi:ry="20"
             sodipodi:rx="20"
             sodipodi:cy="332.36218"
             sodipodi:cx="180"
             id="path3778"
             style="fill:#ffffff;fill-rule:evenodd;stroke:#ffffff;stroke-width:5;stroke-linecap:butt;stroke-linejoin:miter;stroke-miterlimit:4;stroke-opacity:1;stroke-dasharray:none"
             sodipodi:type="arc" />
          <path
             sodipodi:type="arc"
             style="fill:#ffffff;fill-rule:evenodd;stroke:#ffffff;stroke-width:5;stroke-linecap:butt;stroke-linejoin:miter;stroke-miterlimit:4;stroke-opacity:1;stroke-dasharray:none"
             id="path3780"
             sodipodi:cx="180"
             sodipodi:cy="332.36218"
             sodipodi:rx="20"
             sodipodi:ry="20"
             d="m 200,332.36218 c 0,11.0457 -8.95431,20 -20,20 -11.04569,0 -20,-8.9543 -20,-20 0,-11.04569 8.95431,-20 20,-20 11.04569,0 20,8.95431 20,20 z"
             transform="matrix(1.0526488,0,0,1.0526488,351.22401,-222.73851)" />
          <path
             sodipodi:type="arc"
             style="fill:#ffffff;fill-rule:evenodd;stroke:#ffffff;stroke-width:5;stroke-linecap:butt;stroke-linejoin:miter;stroke-miterlimit:4;stroke-opacity:1;stroke-dasharray:none"
             id="path3784"
             sodipodi:cx="180"
             sodipodi:cy="332.36218"
             sodipodi:rx="20"
             sodipodi:ry="20"
             d="m 200,332.36218 c 0,11.0457 -8.95431,20 -20,20 -11.04569,0 -20,-8.9543 -20,-20 0,-11.04569 8.95431,-20 20,-20 11.04569,0 20,8.95431 20,20 z"
             transform="matrix(1.0526488,0,0,1.0526488,137.68667,201.32858)" />
          <path
             transform="matrix(1.0526488,0,0,1.0526488,348.216,201.32858)"
             d="m 200,332.36218 c 0,11.0457 -8.95431,20 -20,20 -11.04569,0 -20,-8.9543 -20,-20 0,-11.04569 8.95431,-20 20,-20 11.04569,0 20,8.95431 20,20 z"
             sodipodi:ry="20"
             sodipodi:rx="20"
             sodipodi:cy="332.36218"
             sodipodi:cx="180"
             id="path3786"
             style="fill:#ffffff;fill-rule:evenodd;stroke:#ffffff;stroke-width:5;stroke-linecap:butt;stroke-linejoin:miter;stroke-miterlimit:4;stroke-opacity:1;stroke-dasharray:none"
             sodipodi:type="arc" />
          <path
             transform="matrix(1.0526488,0,0,1.0526488,-74.346875,201.32858)"
             d="m 200,332.36218 c 0,11.0457 -8.95431,20 -20,20 -11.04569,0 -20,-8.9543 -20,-20 0,-11.04569 8.95431,-20 20,-20 11.04569,0 20,8.95431 20,20 z"
             sodipodi:ry="20"
             sodipodi:rx="20"
             sodipodi:cy="332.36218"
             sodipodi:cx="180"
             id="path3788"
             style="fill:#e6e6e6;fill-rule:evenodd;stroke:#808080;stroke-width:5;stroke-linecap:butt;stroke-linejoin:miter;stroke-miterlimit:4;stroke-opacity:1;stroke-dasharray:none"
             sodipodi:type="arc" />
          <path
             transform="matrix(1.0526488,0,0,1.0526488,136.18289,410.35457)"
             d="m 200,332.36218 c 0,11.0457 -8.95431,20 -20,20 -11.04569,0 -20,-8.9543 -20,-20 0,-11.04569 8.95431,-20 20,-20 11.04569,0 20,8.95431 20,20 z"
             sodipodi:ry="20"
             sodipodi:rx="20"
             sodipodi:cy="332.36218"
             sodipodi:cx="180"
             id="path3790"
             style="fill:#e6e6e6;fill-rule:evenodd;stroke:#808080;stroke-width:5;stroke-linecap:butt;stroke-linejoin:miter;stroke-miterlimit:4;stroke-opacity:1;stroke-dasharray:none"
             sodipodi:type="arc" />
          <path
             sodipodi:type="arc"
             style="fill:#e6e6e6;fill-rule:evenodd;stroke:#ffffff;stroke-width:5;stroke-linecap:butt;stroke-linejoin:miter;stroke-miterlimit:4;stroke-opacity:1;stroke-dasharray:none"
             id="path3792"
             sodipodi:cx="180"
             sodipodi:cy="332.36218"
             sodipodi:rx="20"
             sodipodi:ry="20"
             d="m 200,332.36218 c 0,11.0457 -8.95431,20 -20,20 -11.04569,0 -20,-8.9543 -20,-20 0,-11.04569 8.95431,-20 20,-20 11.04569,0 20,8.95431 20,20 z"
             transform="matrix(1.0526488,0,0,1.0526488,136.18305,-430.26071)" />
          <path
             transform="matrix(1.0526488,0,0,1.0526488,-172.0028,-315.52135)"
             d="m 200,332.36218 c 0,11.0457 -8.95431,20 -20,20 -11.04569,0 -20,-8.9543 -20,-20 0,-11.04569 8.95431,-20 20,-20 11.04569,0 20,8.95431 20,20 z"
             sodipodi:ry="20"
             sodipodi:rx="20"
             sodipodi:cy="332.36218"
             sodipodi:cx="180"
             id="path3794"
             style="fill:#ffffff;fill-rule:evenodd;stroke:#ffffff;stroke-width:5;stroke-linecap:butt;stroke-linejoin:miter;stroke-miterlimit:4;stroke-opacity:1;stroke-dasharray:none"
             sodipodi:type="arc" />
          <path
             sodipodi:type="arc"
             style="fill:#ffffff;fill-rule:evenodd;stroke:#ffffff;stroke-width:5;stroke-linecap:butt;stroke-linejoin:miter;stroke-miterlimit:4;stroke-opacity:1;stroke-dasharray:none"
             id="path3796"
             sodipodi:cx="180"
             sodipodi:cy="332.36218"
             sodipodi:rx="20"
             sodipodi:ry="20"
             d="m 200,332.36218 c 0,11.0457 -8.95431,20 -20,20 -11.04569,0 -20,-8.9543 -20,-20 0,-11.04569 8.95431,-20 20,-20 11.04569,0 20,8.95431 20,20 z"
             transform="matrix(1.0526488,0,0,1.0526488,440.63698,-315.52156)" />
          <path
             sodipodi:type="arc"
             style="fill:#ffffff;fill-rule:evenodd;stroke:#ffffff;stroke-width:5;stroke-linecap:butt;stroke-linejoin:miter;stroke-miterlimit:4;stroke-opacity:1;stroke-dasharray:none"
             id="path3798"
             sodipodi:cx="180"
             sodipodi:cy="332.36218"
             sodipodi:rx="20"
             sodipodi:ry="20"
             d="m 200,332.36218 c 0,11.0457 -8.95431,20 -20,20 -11.04569,0 -20,-8.9543 -20,-20 0,-11.04569 8.95431,-20 20,-20 11.04569,0 20,8.95431 20,20 z"
             transform="matrix(1.0526488,0,0,1.0526488,-172.00337,297.48129)" />
          <path
             transform="matrix(1.0526488,0,0,1.0526488,440.63698,297.48129)"
             d="m 200,332.36218 c 0,11.0457 -8.95431,20 -20,20 -11.04569,0 -20,-8.9543 -20,-20 0,-11.04569 8.95431,-20 20,-20 11.04569,0 20,8.95431 20,20 z"
             sodipodi:ry="20"
             sodipodi:rx="20"
             sodipodi:cy="332.36218"
             sodipodi:cx="180"
             id="path3800"
             style="fill:#ffffff;fill-rule:evenodd;stroke:#ffffff;stroke-width:5;stroke-linecap:butt;stroke-linejoin:miter;stroke-miterlimit:4;stroke-opacity:1;stroke-dasharray:none"
             sodipodi:type="arc" />
          <path
             transform="matrix(1.7698571,0,0,1.7030714,219.11834,-228.55286)"
             d="m 200,332.36218 c 0,11.0457 -8.95431,20 -20,20 -11.04569,0 -20,-8.9543 -20,-20 0,-11.04569 8.95431,-20 20,-20 11.04569,0 20,8.95431 20,20 z"
             sodipodi:ry="20"
             sodipodi:rx="20"
             sodipodi:cy="332.36218"
             sodipodi:cx="180"
             id="path3911"
             style="fill:#ffffff;fill-rule:evenodd;stroke:#ffffff;stroke-width:5;stroke-linecap:butt;stroke-linejoin:miter;stroke-miterlimit:4;stroke-opacity:1;stroke-dasharray:none"
             sodipodi:type="arc" />
          <path
             sodipodi:type="arc"
             style="fill:#ffffff;fill-rule:evenodd;stroke:#ffffff;stroke-width:5;stroke-linecap:butt;stroke-linejoin:miter;stroke-miterlimit:4;stroke-opacity:1;stroke-dasharray:none"
             id="path3909"
             sodipodi:cx="180"
             sodipodi:cy="332.36218"
             sodipodi:rx="20"
             sodipodi:ry="20"
             d="m 200,332.36218 c 0,11.0457 -8.95431,20 -20,20 -11.04569,0 -20,-8.9543 -20,-20 0,-11.04569 8.95431,-20 20,-20 11.04569,0 20,8.95431 20,20 z"
             transform="matrix(1.7698571,0,0,1.7030714,219.11934,-436.07486)" />
          <path
             sodipodi:type="arc"
             style="fill:#ffffff;fill-rule:evenodd;stroke:#ffffff;stroke-width:5.00000525;stroke-linecap:butt;stroke-linejoin:miter;stroke-miterlimit:4;stroke-opacity:1;stroke-dasharray:none"
             id="path3782"
             sodipodi:cx="180"
             sodipodi:cy="332.36218"
             sodipodi:rx="20"
             sodipodi:ry="20"
             d="m 200,332.36218 c 0,11.0457 -8.95431,20 -20,20 -11.04569,0 -20,-8.9543 -20,-20 0,-11.04569 8.95431,-20 20,-20 11.04569,0 20,8.95431 20,20 z"
             transform="matrix(1.7698569,0,0,1.7030711,-203.44462,-436.07476)" />
          <path
             sodipodi:type="arc"
             style="fill:#ffffff;fill-rule:evenodd;stroke:#ffffff;stroke-width:5;stroke-linecap:butt;stroke-linejoin:miter;stroke-miterlimit:4;stroke-opacity:1;stroke-dasharray:none"
             id="path3913"
             sodipodi:cx="180"
             sodipodi:cy="332.36218"
             sodipodi:rx="20"
             sodipodi:ry="20"
             d="m 200,332.36218 c 0,11.0457 -8.95431,20 -20,20 -11.04569,0 -20,-8.9543 -20,-20 0,-11.04569 8.95431,-20 20,-20 11.04569,0 20,8.95431 20,20 z"
             transform="matrix(1.7698571,0,0,1.7030714,-203.44466,-16.518864)" />
          <path
             transform="matrix(1.7698571,0,0,1.7030714,7.0853419,191.00314)"
             d="m 200,332.36218 c 0,11.0457 -8.95431,20 -20,20 -11.04569,0 -20,-8.9543 -20,-20 0,-11.04569 8.95431,-20 20,-20 11.04569,0 20,8.95431 20,20 z"
             sodipodi:ry="20"
             sodipodi:rx="20"
             sodipodi:cy="332.36218"
             sodipodi:cx="180"
             id="path3068"
             style="fill:#ffffff;fill-rule:evenodd;stroke:#ffffff;stroke-width:5;stroke-linecap:butt;stroke-linejoin:miter;stroke-miterlimit:4;stroke-opacity:1;stroke-dasharray:none"
             sodipodi:type="arc" />
          <path
             transform="matrix(1.7698571,0,0,1.7030714,7.0853419,-645.67286)"
             d="m 200,332.36218 c 0,11.0457 -8.95431,20 -20,20 -11.04569,0 -20,-8.9543 -20,-20 0,-11.04569 8.95431,-20 20,-20 11.04569,0 20,8.95431 20,20 z"
             sodipodi:ry="20"
             sodipodi:rx="20"
             sodipodi:cy="332.36218"
             sodipodi:cx="180"
             id="path3070"
             style="fill:#ffffff;fill-rule:evenodd;stroke:#ffffff;stroke-width:5;stroke-linecap:butt;stroke-linejoin:miter;stroke-miterlimit:4;stroke-opacity:1;stroke-dasharray:none"
             sodipodi:type="arc" />
          <path
             sodipodi:type="arc"
             style="fill:#ffffff;fill-rule:evenodd;stroke:#ffffff;stroke-width:5;stroke-linecap:butt;stroke-linejoin:miter;stroke-miterlimit:4;stroke-opacity:1;stroke-dasharray:none"
             id="path3072"
             sodipodi:cx="180"
             sodipodi:cy="332.36218"
             sodipodi:rx="20"
             sodipodi:ry="20"
             d="m 200,332.36218 c 0,11.0457 -8.95431,20 -20,20 -11.04569,0 -20,-8.9543 -20,-20 0,-11.04569 8.95431,-20 20,-20 11.04569,0 20,8.95431 20,20 z"
             transform="matrix(1.7698571,0,0,1.7030714,219.11834,-16.518864)" />
          <path
             sodipodi:type="arc"
             style="fill:#ffffff;fill-rule:evenodd;stroke:#ffffff;stroke-width:5;stroke-linecap:butt;stroke-linejoin:miter;stroke-miterlimit:4;stroke-opacity:1;stroke-dasharray:none"
             id="path3074"
             sodipodi:cx="180"
             sodipodi:cy="332.36218"
             sodipodi:rx="20"
             sodipodi:ry="20"
             d="m 200,332.36218 c 0,11.0457 -8.95431,20 -20,20 -11.04569,0 -20,-8.9543 -20,-20 0,-11.04569 8.95431,-20 20,-20 11.04569,0 20,8.95431 20,20 z"
             transform="matrix(1.7698571,0,0,1.7030714,-203.44466,-228.55286)" />
          <path
             transform="matrix(1.7698571,0,0,1.7030714,7.0853419,-228.55286)"
             d="m 200,332.36218 c 0,11.0457 -8.95431,20 -20,20 -11.04569,0 -20,-8.9543 -20,-20 0,-11.04569 8.95431,-20 20,-20 11.04569,0 20,8.95431 20,20 z"
             sodipodi:ry="20"
             sodipodi:rx="20"
             sodipodi:cy="332.36218"
             sodipodi:cx="180"
             id="path3803"
             style="fill:#ffffff;fill-rule:evenodd;stroke:#ffffff;stroke-width:5;stroke-linecap:butt;stroke-linejoin:miter;stroke-miterlimit:4;stroke-opacity:1;stroke-dasharray:none"
             sodipodi:type="arc" />
          <path
             style="fill:none;stroke:#ffffff;stroke-width:10.61509895;stroke-linecap:butt;stroke-linejoin:miter;stroke-miterlimit:4;stroke-opacity:1;stroke-dasharray:none"
             d="M 16.651814,29.650359 323.31022,-88.295181 629.96862,29.650359 747.91416,336.30876 629.96862,642.96717"
             id="path3927-6"
             inkscape:connector-curvature="0" />
          <path
             style="fill:#ffffff;stroke:#ffffff;stroke-width:10.61509895;stroke-linecap:butt;stroke-linejoin:miter;stroke-miterlimit:4;stroke-opacity:1;stroke-dasharray:none"
             d="M 629.96862,642.96717 323.31022,760.91271"
             id="path3929-7"
             inkscape:connector-curvature="0" />
          <path
             style="fill:none;stroke:#ffffff;stroke-width:10.61509895;stroke-linecap:butt;stroke-linejoin:miter;stroke-miterlimit:4;stroke-opacity:1;stroke-dasharray:none"
             d="M 323.31022,760.91271 16.651814,642.96717 -101.29373,336.30876 16.651814,29.650359"
             id="path3931-5"
             inkscape:connector-curvature="0" />
        </g>
      </g>
    </g>
  </g>
</svg>
