<?xml version="1.0" encoding="UTF-8" standalone="no"?>
<!-- Created with Inkscape (http://www.inkscape.org/) -->

<svg
   xmlns:dc="http://purl.org/dc/elements/1.1/"
   xmlns:cc="http://creativecommons.org/ns#"
   xmlns:rdf="http://www.w3.org/1999/02/22-rdf-syntax-ns#"
   xmlns:svg="http://www.w3.org/2000/svg"
   xmlns="http://www.w3.org/2000/svg"
   xmlns:sodipodi="http://sodipodi.sourceforge.net/DTD/sodipodi-0.dtd"
   xmlns:inkscape="http://www.inkscape.org/namespaces/inkscape"
   width="630.26672"
   height="190.98013"
   id="svg2"
   version="1.1"
   inkscape:version="0.48.4 r9939"
   sodipodi:docname="TinyDNN-logo&amp;letters-final.svg"
   inkscape:export-filename="/home/albert/Escriptori/tiny/theta curved gidolinya/TinyDNN-gidolinya-teal-sphere-small.png"
   inkscape:export-xdpi="90"
   inkscape:export-ydpi="90">
  <defs
     id="defs4" />
  <sodipodi:namedview
     id="base"
     pagecolor="#ffffff"
     bordercolor="#666666"
     borderopacity="1.0"
     inkscape:pageopacity="0.0"
     inkscape:pageshadow="2"
     inkscape:zoom="0.7"
     inkscape:cx="379.27058"
     inkscape:cy="89.381083"
     inkscape:document-units="px"
     inkscape:current-layer="capa1"
     showgrid="false"
     showguides="true"
     fit-margin-top="0"
     fit-margin-left="0"
     fit-margin-right="0"
     fit-margin-bottom="0"
     inkscape:guide-bbox="true"
     inkscape:window-width="1024"
     inkscape:window-height="713"
     inkscape:window-x="0"
     inkscape:window-y="27"
     inkscape:window-maximized="1">
    <inkscape:grid
       type="xygrid"
       id="grid2985"
       empspacing="5"
       visible="true"
       enabled="true"
       snapvisiblegridlinesonly="true"
       originx="67.052319px"
       originy="-657.48385px" />
  </sodipodi:namedview>
  <metadata
     id="metadata7">
    <rdf:RDF>
      <cc:Work
         rdf:about="">
        <dc:format>image/svg+xml</dc:format>
        <dc:type
           rdf:resource="http://purl.org/dc/dcmitype/StillImage" />
        <dc:title />
      </cc:Work>
    </rdf:RDF>
  </metadata>
  <g
     inkscape:label="Capa 1"
     inkscape:groupmode="layer"
     id="capa1"
     transform="translate(67.052319,-203.8981)">
    <flowRoot
       xml:space="preserve"
       id="flowRoot3866"
       style="font-size:300px;font-style:normal;font-variant:normal;font-weight:normal;font-stretch:normal;line-height:125%;letter-spacing:0px;word-spacing:0px;fill:#000000;fill-opacity:1;stroke:none;font-family:Wingdings;-inkscape-font-specification:Wingdings"
       transform="translate(79.691507,-325.95823)"><flowRegion
         id="flowRegion3868"><rect
           id="rect3870"
           width="1264.7111"
           height="412.14224"
           x="-288.90363"
           y="399.10431"
           style="font-size:300px;font-style:normal;font-variant:normal;font-weight:normal;font-stretch:normal;font-family:Wingdings;-inkscape-font-specification:Wingdings" /></flowRegion><flowPara
         id="flowPara3872"><flowSpan
           style="font-style:normal;font-variant:normal;font-weight:normal;font-stretch:normal;line-height:162.00000048%;letter-spacing:-12.17000008px;fill:#008080;font-family:K1FS;-inkscape-font-specification:K1FS"
           id="flowSpan3874">tiny  </flowSpan><flowSpan
           id="flowSpan3057"
           style="font-style:normal;font-variant:normal;font-weight:normal;font-stretch:normal;line-height:162.00000048%;letter-spacing:-12.17000008px;fill:#000000;font-family:K1FS;-inkscape-font-specification:K1FS">dn</flowSpan><flowSpan
           style="font-style:normal;font-variant:normal;font-weight:normal;font-stretch:normal;line-height:162.00000048%;letter-spacing:-12.17000008px;fill:#000000;font-family:K1FS;-inkscape-font-specification:K1FS"
           id="flowSpan3039">n   </flowSpan></flowPara></flowRoot>    <g
       id="flowRoot3524"
       style="font-size:40px;font-style:normal;font-weight:normal;line-height:125%;letter-spacing:0px;word-spacing:0px;fill:#000000;fill-opacity:1;stroke:none;font-family:Sans"
       transform="translate(-10.364819,71.302661)" />
    <path
       inkscape:connector-curvature="0"
       id="path4697"
       d="m 170.69993,311.80453 45,0.71428"
       style="fill:none;stroke:#808080;stroke-width:14;stroke-linecap:butt;stroke-linejoin:miter;stroke-miterlimit:0;stroke-opacity:1;stroke-dasharray:none" />
    <path
       inkscape:connector-curvature="0"
       id="path3123"
       style="font-size:40px;font-style:normal;font-weight:normal;line-height:125%;letter-spacing:0px;word-spacing:0px;fill:#008080;fill-opacity:1;stroke:none;font-family:Gidolinya;-inkscape-font-specification:Gidolinya"
       d="m -53.052319,323.07823 0,-49.2 24,0 0,-12.4 -24,0 0,-22.6 -14,0 0,84.2 c 0,11.39999 6e-6,19.00001 5.6,26 4.399996,5.59999 11.800009,9.2 20.6,9.2 7.199993,0 13.600005,-2.4 19,-5.2 l -6,-11.8 c -4.599995,2.4 -9.200004,3.8 -13,3.8 -4.399996,0 -7.400002,-1.6 -9.4,-4 -2.799997,-3.6 -2.8,-7.20001 -2.8,-18" />
    <path
       inkscape:connector-curvature="0"
       id="path3125"
       style="font-size:40px;font-style:normal;font-weight:normal;line-height:125%;letter-spacing:0px;word-spacing:0px;fill:#008080;fill-opacity:1;stroke:none;font-family:Gidolinya;-inkscape-font-specification:Gidolinya"
       d="m -2.7616963,227.27823 c -5.3999946,0 -9.3999997,3.8 -9.3999997,9.4 0,5.59999 4.0000051,9.4 9.3999997,9.4 5.3999943,0 9.4000003,-3.80001 9.4000003,-9.4 0,-5.6 -4.000006,-9.4 -9.4000003,-9.4 m -7,129.8 14.0000003,0 0,-95.6 -14.0000003,0 0,95.6" />
    <path
       inkscape:connector-curvature="0"
       id="path3127"
       style="font-size:40px;font-style:normal;font-weight:normal;line-height:125%;letter-spacing:0px;word-spacing:0px;fill:#008080;fill-opacity:1;stroke:none;font-family:Gidolinya;-inkscape-font-specification:Gidolinya"
       d="m 56.482051,260.27823 c -12.199987,0 -20.800004,5.2 -25.6,10.2 -9.39999,9.79999 -9.4,21.40001 -9.4,35.4 l 0,51.2 14,0 0,-51.2 c 0,-12.39999 6e-6,-20.80001 5.8,-26.6 3.399997,-3.4 8.600007,-5.8 15.2,-5.8 6.599994,0 11.800004,2.4 15.2,5.8 5.799995,5.79999 5.8,14.20001 5.8,26.6 l 0,51.2 14,0 0,-51.2 c 0,-13.99999 -1e-5,-25.60001 -9.4,-35.4 -4.799995,-5 -13.400012,-10.2 -25.6,-10.2" />
    <path
       inkscape:connector-curvature="0"
       id="path3129"
       style="font-size:40px;font-style:normal;font-weight:normal;line-height:125%;letter-spacing:0px;word-spacing:0px;fill:#008080;fill-opacity:1;stroke:none;font-family:Gidolinya;-inkscape-font-specification:Gidolinya"
       d="m 97.116431,261.47823 20.199999,67.4 c 4.39999,14.39998 5.2,18 8.2,22 2.79999,3.59999 7.4,6.2 13,7 -2.8,12.99999 -4.00001,17.6 -6.8,20.4 -2.2,2.2 -4.80001,3.4 -8.6,3.4 -3,0 -6.00001,-0.6 -9.2,-1.8 l -4.2,12.4 c 4.39999,1.6 9,2.6 13.4,2.6 8.39999,0 15.2,-3.80001 19.4,-8.6 4.39999,-5 6,-11.20001 8.2,-21 l 23,-103.8 -14.4,0 -18,83.4 c -2,-0.2 -4,-0.6 -5.2,-2.4 -1.2,-1.8 -2.60001,-6.20001 -5.6,-16.6 l -18.8,-64.4 -14.599999,0" />
    <path
       inkscape:connector-curvature="0"
       id="path3131"
       style="font-size:200px;font-style:normal;font-variant:normal;font-weight:normal;font-stretch:normal;line-height:125%;letter-spacing:-6.60000134px;word-spacing:0px;fill:#000000;fill-opacity:1;stroke:none;font-family:Gidolinya;-inkscape-font-specification:Gidolinya"
       d="m 259.51018,260.27823 c -11.79999,0 -21.20001,4.80001 -27,11.8 -8.99999,10.79999 -9,24.00001 -9,37.6 0,12.19999 1e-5,26.20001 11.2,37.6 6.19999,6.19999 15.80001,11 27.8,11 12.59999,0 22.60001,-5.40001 28.2,-13.2 6.79999,-9.39999 6.8,-19.40002 6.8,-34.4 l 0,-86.8 -14,0 0,48.6 c -5.39999,-7.59999 -14.20001,-12.2 -24,-12.2 m 24,53 c 0,10.59999 0,19.2 -4.8,25 -4,4.79999 -10.00001,6.8 -16.2,6.8 -6.79999,0 -13.6,-2.40001 -18,-7.2 -6.99999,-7.59999 -7,-18.00001 -7,-28.2 0,-11.19999 1e-5,-22.20001 6,-29.2 3.6,-4.2 9.40001,-7 17,-7 7.59999,0 13.4,2.8 17,7 5.99999,6.99999 6,18.00001 6,32.8" />
    <path
       inkscape:connector-curvature="0"
       id="path3133"
       style="font-size:200px;font-style:normal;font-variant:normal;font-weight:normal;font-stretch:normal;line-height:125%;letter-spacing:-6.60000134px;word-spacing:0px;fill:#000000;fill-opacity:1;stroke:none;font-family:Gidolinya;-inkscape-font-specification:Gidolinya"
       d="m 348.0508,260.27823 c -12.19999,0 -20.80001,5.2 -25.6,10.2 -9.39999,9.79999 -9.4,21.40001 -9.4,35.4 l 0,51.2 14,0 0,-51.2 c 0,-12.39999 0,-20.80001 5.8,-26.6 3.4,-3.4 8.60001,-5.8 15.2,-5.8 6.59999,0 11.8,2.4 15.2,5.8 5.79999,5.79999 5.8,14.20001 5.8,26.6 l 0,51.2 14,0 0,-51.2 c 0,-13.99999 -10e-6,-25.60001 -9.4,-35.4 -4.8,-5 -13.40001,-10.2 -25.6,-10.2" />
    <path
       inkscape:connector-curvature="0"
       id="path3135"
       style="font-size:200px;font-style:normal;font-variant:normal;font-weight:normal;font-stretch:normal;line-height:125%;letter-spacing:-6.60000134px;word-spacing:0px;fill:#000000;fill-opacity:1;stroke:none;font-family:Gidolinya;-inkscape-font-specification:Gidolinya"
       d="m 433.63829,260.27823 c -12.19999,0 -20.8,5.2 -25.6,10.2 -9.39999,9.79999 -9.4,21.40001 -9.4,35.4 l 0,51.2 14,0 0,-51.2 c 0,-12.39999 1e-5,-20.80001 5.8,-26.6 3.4,-3.4 8.60001,-5.8 15.2,-5.8 6.6,0 11.80001,2.4 15.2,5.8 5.8,5.79999 5.8,14.20001 5.8,26.6 l 0,51.2 14,0 0,-51.2 c 0,-13.99999 -10e-6,-25.60001 -9.4,-35.4 -4.79999,-5 -13.40001,-10.2 -25.6,-10.2" />
    <path
       transform="matrix(0.07823882,0,0,0.07474929,478.71647,208.30864)"
       d="m 1079.9999,549.56696 a 581.42853,608.57141 0 1 1 -1162.857017,0 581.42853,608.57141 0 1 1 1162.857017,0 z"
       sodipodi:ry="608.57141"
       sodipodi:rx="581.42853"
       sodipodi:cy="549.56696"
       sodipodi:cx="498.57141"
       id="path3043-3"
       style="fill:#008080;fill-rule:evenodd;stroke:none"
       sodipodi:type="arc" />
    <path
       sodipodi:nodetypes="cc"
       inkscape:connector-curvature="0"
       id="path3044"
       d="m 534.28989,266.86518 c 0.83735,8.84789 -5.04922,14.59594 -16.65575,16.65575"
       style="fill:none;stroke:#ffffff;stroke-width:2.5400188;stroke-linecap:butt;stroke-linejoin:miter;stroke-miterlimit:4;stroke-opacity:1;stroke-dasharray:none" />
    <path
       style="fill:none;stroke:#ffffff;stroke-width:2.5400188;stroke-linecap:butt;stroke-linejoin:miter;stroke-miterlimit:4;stroke-opacity:1;stroke-dasharray:none"
       d="m 501.16513,266.86518 c -0.83734,8.84789 5.04923,14.59594 16.65576,16.65575"
       id="path3042"
       inkscape:connector-curvature="0"
       sodipodi:nodetypes="cc" />
    <path
       style="fill:none;stroke:#ffffff;stroke-width:2.5400188;stroke-linecap:butt;stroke-linejoin:miter;stroke-miterlimit:4;stroke-opacity:1;stroke-dasharray:none"
       d="m 534.29822,232.75419 c 0.83735,-8.84788 -5.04923,-14.59593 -16.65575,-16.65574"
       id="path3040"
       inkscape:connector-curvature="0"
       sodipodi:nodetypes="cc" />
    <path
       inkscape:connector-curvature="0"
       id="path3872"
       d="M 551.13239,249.71805 534.47664,233.0623"
       style="fill:#ffffff;stroke:#ffffff;stroke-width:0.74950892;stroke-linecap:butt;stroke-linejoin:miter;stroke-miterlimit:4;stroke-opacity:1;stroke-dasharray:none" />
    <path
       inkscape:connector-curvature="0"
       id="path3870"
       d="M 484.50938,249.71805 501.16513,233.0623"
       style="fill:none;stroke:#ffffff;stroke-width:0.74950892;stroke-linecap:butt;stroke-linejoin:miter;stroke-miterlimit:4;stroke-opacity:1;stroke-dasharray:none" />
    <path
       inkscape:connector-curvature="0"
       id="path3812"
       d="m 551.13239,249.71806 -16.65575,0"
       style="fill:#ffffff;stroke:#ffffff;stroke-width:0.74950892;stroke-linecap:butt;stroke-linejoin:miter;stroke-miterlimit:4;stroke-opacity:1;stroke-dasharray:none" />
    <path
       inkscape:connector-curvature="0"
       id="path3810"
       d="m 534.47664,249.71806 -16.65575,0"
       style="fill:none;stroke:#ffffff;stroke-width:2.5400188;stroke-linecap:butt;stroke-linejoin:miter;stroke-miterlimit:4;stroke-opacity:1;stroke-dasharray:none" />
    <path
       inkscape:connector-curvature="0"
       id="path3807"
       d="m 517.82089,249.71806 -16.65576,0"
       style="fill:none;stroke:#ffffff;stroke-width:2.5400188;stroke-linecap:butt;stroke-linejoin:miter;stroke-miterlimit:4;stroke-opacity:1;stroke-dasharray:none" />
    <path
       inkscape:connector-curvature="0"
       id="path3805"
       d="m 484.50938,249.71806 16.65575,0"
       style="fill:#ffffff;stroke:#ffffff;stroke-width:0.74950892;stroke-linecap:butt;stroke-linejoin:miter;stroke-miterlimit:4;stroke-opacity:1;stroke-dasharray:none" />
    <path
       sodipodi:nodetypes="cc"
       inkscape:connector-curvature="0"
       id="path3031"
       d="m 501.16513,232.75419 c -0.83734,-8.84788 5.04923,-14.59593 16.65576,-16.65574"
       style="fill:none;stroke:#ffffff;stroke-width:2.5400188;stroke-linecap:butt;stroke-linejoin:miter;stroke-miterlimit:4;stroke-opacity:1;stroke-dasharray:none" />
    <path
       inkscape:connector-curvature="0"
       id="path3797"
       d="m 484.50938,249.71806 16.65575,16.65575"
       style="fill:#999999;stroke:#ffffff;stroke-width:0.74950892;stroke-linecap:butt;stroke-linejoin:miter;stroke-miterlimit:4;stroke-opacity:1;stroke-dasharray:none" />
    <path
       inkscape:connector-curvature="0"
       id="path3801"
       d="m 551.13239,249.71806 -16.65575,16.65575"
       style="fill:#ffffff;stroke:#ffffff;stroke-width:0.74950892;stroke-linecap:butt;stroke-linejoin:miter;stroke-miterlimit:4;stroke-opacity:1;stroke-dasharray:none" />
    <path
       inkscape:connector-curvature="0"
       id="path3813"
       d="M 517.82089,249.71806 501.16513,233.06231"
       style="fill:none;stroke:#ffffff;stroke-width:0.74950892;stroke-linecap:butt;stroke-linejoin:miter;stroke-miterlimit:4;stroke-opacity:1;stroke-dasharray:none" />
    <path
       inkscape:connector-curvature="0"
       id="path3819"
       d="m 517.82089,249.71806 16.65575,-16.65575"
       style="fill:#ffffff;stroke:#ffffff;stroke-width:0.74950892;stroke-linecap:butt;stroke-linejoin:miter;stroke-miterlimit:4;stroke-opacity:1;stroke-dasharray:none" />
    <path
       inkscape:connector-curvature="0"
       id="path3039"
       d="m 517.82089,249.71806 0,16.65575"
       style="fill:#ffffff;stroke:#ffffff;stroke-width:0.74950892;stroke-linecap:butt;stroke-linejoin:miter;stroke-miterlimit:4;stroke-opacity:1;stroke-dasharray:none" />
    <path
       inkscape:connector-curvature="0"
       id="path3862"
       d="m 517.82089,233.06231 0,16.65575"
       style="fill:#ffffff;stroke:#ffffff;stroke-width:0.74950892;stroke-linecap:butt;stroke-linejoin:miter;stroke-miterlimit:4;stroke-opacity:1;stroke-dasharray:none" />
    <path
       inkscape:connector-curvature="0"
       id="path3822"
       d="m 534.33821,233.20074 8.40271,-8.40271"
       style="fill:#ffffff;stroke:#ffffff;stroke-width:0.83979797;stroke-linecap:butt;stroke-linejoin:miter;stroke-miterlimit:4;stroke-opacity:1;stroke-dasharray:none" />
    <path
       inkscape:connector-curvature="0"
       id="path3817"
       d="m 501.32841,233.22558 -7.5193,-7.51929"
       style="fill:#000000;stroke:#ffffff;stroke-width:0.83979797;stroke-linecap:butt;stroke-linejoin:miter;stroke-miterlimit:4;stroke-opacity:1;stroke-dasharray:none" />
    <path
       inkscape:connector-curvature="0"
       id="path3815"
       d="m 501.16513,266.37381 16.65576,-16.65575"
       style="fill:none;stroke:#ffffff;stroke-width:0.74950892;stroke-linecap:butt;stroke-linejoin:miter;stroke-miterlimit:4;stroke-opacity:1;stroke-dasharray:none" />
    <path
       inkscape:connector-curvature="0"
       id="path3811"
       d="m 534.33466,266.23184 8.27651,8.2765"
       style="fill:none;stroke:#ffffff;stroke-width:0.83979797;stroke-linecap:butt;stroke-linejoin:miter;stroke-miterlimit:4;stroke-opacity:1;stroke-dasharray:none" />
    <path
       inkscape:connector-curvature="0"
       id="path3809"
       d="m 517.82089,249.71806 16.65575,16.65575"
       style="fill:#ffffff;stroke:#ffffff;stroke-width:0.74950892;stroke-linecap:butt;stroke-linejoin:miter;stroke-miterlimit:4;stroke-opacity:1;stroke-dasharray:none" />
    <path
       inkscape:connector-curvature="0"
       id="path3926"
       d="m 517.82089,216.40656 0,16.65575"
       style="fill:none;stroke:#ffffff;stroke-width:0.74950892;stroke-linecap:butt;stroke-linejoin:miter;stroke-miterlimit:4;stroke-opacity:1;stroke-dasharray:none" />
    <path
       inkscape:connector-curvature="0"
       id="path3905"
       d="m 534.47664,233.06231 0,16.65575 0,16.65575"
       style="fill:#ffffff;stroke:#ffffff;stroke-width:2.5400188;stroke-linecap:butt;stroke-linejoin:miter;stroke-miterlimit:4;stroke-opacity:1;stroke-dasharray:none" />
    <path
       inkscape:connector-curvature="0"
       id="path3901"
       d="m 501.16513,233.06231 0,16.65575 0,16.65575"
       style="fill:none;stroke:#ffffff;stroke-width:2.5400188;stroke-linecap:butt;stroke-linejoin:miter;stroke-miterlimit:4;stroke-opacity:1;stroke-dasharray:none" />
    <path
       inkscape:connector-curvature="0"
       id="path3880"
       d="m 501.16513,266.37381 16.65576,0 16.65575,0"
       style="fill:none;stroke:#ffffff;stroke-width:0.74950892;stroke-linecap:butt;stroke-linejoin:miter;stroke-miterlimit:4;stroke-opacity:1;stroke-dasharray:none" />
    <path
       inkscape:connector-curvature="0"
       id="path3878"
       d="m 500.99689,233.06231 16.65575,0 16.65575,0"
       style="fill:none;stroke:#ffffff;stroke-width:0.74950892;stroke-linecap:butt;stroke-linejoin:miter;stroke-miterlimit:4;stroke-opacity:1;stroke-dasharray:none" />
    <path
       inkscape:connector-curvature="0"
       id="path3868"
       d="m 492.63777,274.63457 8.66227,-8.39566"
       style="fill:none;stroke:#ffffff;stroke-width:0.83979797;stroke-linecap:butt;stroke-linejoin:miter;stroke-miterlimit:4;stroke-opacity:1;stroke-dasharray:none" />
    <path
       inkscape:connector-curvature="0"
       id="path3849"
       d="m 517.82089,266.37381 0,16.65576"
       style="fill:none;stroke:#ffffff;stroke-width:0.74950892;stroke-linecap:butt;stroke-linejoin:miter;stroke-miterlimit:4;stroke-opacity:1;stroke-dasharray:none" />
    <path
       transform="matrix(0.08327876,0,0,0.08327876,502.83071,222.15832)"
       d="m 200,332.36218 a 20,20 0 1 1 -40,0 20,20 0 1 1 40,0 z"
       sodipodi:ry="20"
       sodipodi:rx="20"
       sodipodi:cy="332.36218"
       sodipodi:cx="180"
       id="path2987"
       style="fill:#e6e6e6;fill-rule:evenodd;stroke:#ffffff;stroke-width:5;stroke-linecap:butt;stroke-linejoin:miter;stroke-miterlimit:4;stroke-opacity:1;stroke-dasharray:none"
       sodipodi:type="arc" />
    <path
       sodipodi:type="arc"
       style="fill:#ffffff;fill-rule:evenodd;stroke:#ffffff;stroke-width:5;stroke-linecap:butt;stroke-linejoin:miter;stroke-miterlimit:4;stroke-opacity:1;stroke-dasharray:none"
       id="path3757"
       sodipodi:cx="180"
       sodipodi:cy="332.36218"
       sodipodi:rx="20"
       sodipodi:ry="20"
       d="m 200,332.36218 a 20,20 0 1 1 -40,0 20,20 0 1 1 40,0 z"
       transform="matrix(0.08327876,0,0,0.08327876,519.48646,222.15832)" />
    <path
       sodipodi:type="arc"
       style="fill:#e6e6e6;fill-rule:evenodd;stroke:#ffffff;stroke-width:5;stroke-linecap:butt;stroke-linejoin:miter;stroke-miterlimit:4;stroke-opacity:1;stroke-dasharray:none"
       id="path3759"
       sodipodi:cx="180"
       sodipodi:cy="332.36218"
       sodipodi:rx="20"
       sodipodi:ry="20"
       d="m 200,332.36218 a 20,20 0 1 1 -40,0 20,20 0 1 1 40,0 z"
       transform="matrix(0.08327876,0,0,0.08327876,486.056,222.15832)" />
    <path
       transform="matrix(0.08327876,0,0,0.08327876,469.63817,222.15832)"
       d="m 200,332.36218 a 20,20 0 1 1 -40,0 20,20 0 1 1 40,0 z"
       sodipodi:ry="20"
       sodipodi:rx="20"
       sodipodi:cy="332.36218"
       sodipodi:cx="180"
       id="path3761"
       style="fill:#ffffff;fill-rule:evenodd;stroke:#ffffff;stroke-width:5;stroke-linecap:butt;stroke-linejoin:miter;stroke-miterlimit:4;stroke-opacity:1;stroke-dasharray:none"
       sodipodi:type="arc" />
    <path
       transform="matrix(0.08308214,0,0,0.08329034,536.29241,222.15449)"
       d="m 200,332.36218 a 20,20 0 1 1 -40,0 20,20 0 1 1 40,0 z"
       sodipodi:ry="20"
       sodipodi:rx="20"
       sodipodi:cy="332.36218"
       sodipodi:cx="180"
       id="path3763"
       style="fill:#ffffff;fill-rule:evenodd;stroke:#ffffff;stroke-width:5;stroke-linecap:butt;stroke-linejoin:miter;stroke-miterlimit:4;stroke-opacity:1;stroke-dasharray:none"
       sodipodi:type="arc" />
    <path
       sodipodi:type="arc"
       style="fill:#ffffff;fill-rule:evenodd;stroke:#ffffff;stroke-width:5;stroke-linecap:butt;stroke-linejoin:miter;stroke-miterlimit:4;stroke-opacity:1;stroke-dasharray:none"
       id="path3778"
       sodipodi:cx="180"
       sodipodi:cy="332.36218"
       sodipodi:rx="20"
       sodipodi:ry="20"
       d="m 200,332.36218 a 20,20 0 1 1 -40,0 20,20 0 1 1 40,0 z"
       transform="matrix(0.08327876,0,0,0.08327876,502.94968,205.14566)" />
    <path
       transform="matrix(0.08327876,0,0,0.08327876,519.7244,205.26463)"
       d="m 200,332.36218 a 20,20 0 1 1 -40,0 20,20 0 1 1 40,0 z"
       sodipodi:ry="20"
       sodipodi:rx="20"
       sodipodi:cy="332.36218"
       sodipodi:cx="180"
       id="path3780"
       style="fill:#ffffff;fill-rule:evenodd;stroke:#ffffff;stroke-width:5;stroke-linecap:butt;stroke-linejoin:miter;stroke-miterlimit:4;stroke-opacity:1;stroke-dasharray:none"
       sodipodi:type="arc" />
    <path
       transform="matrix(0.08327876,0,0,0.08327876,502.83071,238.81407)"
       d="m 200,332.36218 a 20,20 0 1 1 -40,0 20,20 0 1 1 40,0 z"
       sodipodi:ry="20"
       sodipodi:rx="20"
       sodipodi:cy="332.36218"
       sodipodi:cx="180"
       id="path3784"
       style="fill:#ffffff;fill-rule:evenodd;stroke:#ffffff;stroke-width:5;stroke-linecap:butt;stroke-linejoin:miter;stroke-miterlimit:4;stroke-opacity:1;stroke-dasharray:none"
       sodipodi:type="arc" />
    <path
       sodipodi:type="arc"
       style="fill:#ffffff;fill-rule:evenodd;stroke:#ffffff;stroke-width:5;stroke-linecap:butt;stroke-linejoin:miter;stroke-miterlimit:4;stroke-opacity:1;stroke-dasharray:none"
       id="path3786"
       sodipodi:cx="180"
       sodipodi:cy="332.36218"
       sodipodi:rx="20"
       sodipodi:ry="20"
       d="m 200,332.36218 a 20,20 0 1 1 -40,0 20,20 0 1 1 40,0 z"
       transform="matrix(0.08327876,0,0,0.08327876,519.48643,238.81407)" />
    <path
       sodipodi:type="arc"
       style="fill:#e6e6e6;fill-rule:evenodd;stroke:#808080;stroke-width:5;stroke-linecap:butt;stroke-linejoin:miter;stroke-miterlimit:4;stroke-opacity:1;stroke-dasharray:none"
       id="path3788"
       sodipodi:cx="180"
       sodipodi:cy="332.36218"
       sodipodi:rx="20"
       sodipodi:ry="20"
       d="m 200,332.36218 a 20,20 0 1 1 -40,0 20,20 0 1 1 40,0 z"
       transform="matrix(0.08327876,0,0,0.08327876,486.05599,238.81407)" />
    <path
       sodipodi:type="arc"
       style="fill:#e6e6e6;fill-rule:evenodd;stroke:#808080;stroke-width:5;stroke-linecap:butt;stroke-linejoin:miter;stroke-miterlimit:4;stroke-opacity:1;stroke-dasharray:none"
       id="path3790"
       sodipodi:cx="180"
       sodipodi:cy="332.36218"
       sodipodi:rx="20"
       sodipodi:ry="20"
       d="m 200,332.36218 a 20,20 0 1 1 -40,0 20,20 0 1 1 40,0 z"
       transform="matrix(0.08327876,0,0,0.08327876,502.71174,255.35086)" />
    <path
       transform="matrix(0.08327876,0,0,0.08327876,502.71175,188.84682)"
       d="m 200,332.36218 a 20,20 0 1 1 -40,0 20,20 0 1 1 40,0 z"
       sodipodi:ry="20"
       sodipodi:rx="20"
       sodipodi:cy="332.36218"
       sodipodi:cx="180"
       id="path3792"
       style="fill:#e6e6e6;fill-rule:evenodd;stroke:#ffffff;stroke-width:5;stroke-linecap:butt;stroke-linejoin:miter;stroke-miterlimit:4;stroke-opacity:1;stroke-dasharray:none"
       sodipodi:type="arc" />
    <path
       sodipodi:type="arc"
       style="fill:#ffffff;fill-rule:evenodd;stroke:#ffffff;stroke-width:5;stroke-linecap:butt;stroke-linejoin:miter;stroke-miterlimit:4;stroke-opacity:1;stroke-dasharray:none"
       id="path3794"
       sodipodi:cx="180"
       sodipodi:cy="332.36218"
       sodipodi:rx="20"
       sodipodi:ry="20"
       d="m 200,332.36218 a 20,20 0 1 1 -40,0 20,20 0 1 1 40,0 z"
       transform="matrix(0.08327876,0,0,0.08327876,478.33008,197.92425)" />
    <path
       transform="matrix(0.08327876,0,0,0.08327876,526.79818,197.92424)"
       d="m 200,332.36218 a 20,20 0 1 1 -40,0 20,20 0 1 1 40,0 z"
       sodipodi:ry="20"
       sodipodi:rx="20"
       sodipodi:cy="332.36218"
       sodipodi:cx="180"
       id="path3796"
       style="fill:#ffffff;fill-rule:evenodd;stroke:#ffffff;stroke-width:5;stroke-linecap:butt;stroke-linejoin:miter;stroke-miterlimit:4;stroke-opacity:1;stroke-dasharray:none"
       sodipodi:type="arc" />
    <path
       transform="matrix(0.08327876,0,0,0.08327876,478.33004,246.42105)"
       d="m 200,332.36218 a 20,20 0 1 1 -40,0 20,20 0 1 1 40,0 z"
       sodipodi:ry="20"
       sodipodi:rx="20"
       sodipodi:cy="332.36218"
       sodipodi:cx="180"
       id="path3798"
       style="fill:#ffffff;fill-rule:evenodd;stroke:#ffffff;stroke-width:5;stroke-linecap:butt;stroke-linejoin:miter;stroke-miterlimit:4;stroke-opacity:1;stroke-dasharray:none"
       sodipodi:type="arc" />
    <path
       sodipodi:type="arc"
       style="fill:#ffffff;fill-rule:evenodd;stroke:#ffffff;stroke-width:5;stroke-linecap:butt;stroke-linejoin:miter;stroke-miterlimit:4;stroke-opacity:1;stroke-dasharray:none"
       id="path3800"
       sodipodi:cx="180"
       sodipodi:cy="332.36218"
       sodipodi:rx="20"
       sodipodi:ry="20"
       d="m 200,332.36218 a 20,20 0 1 1 -40,0 20,20 0 1 1 40,0 z"
       transform="matrix(0.08327876,0,0,0.08327876,526.79818,246.42105)" />
    <path
       sodipodi:type="arc"
       style="fill:#ffffff;fill-rule:evenodd;stroke:#ffffff;stroke-width:5;stroke-linecap:butt;stroke-linejoin:miter;stroke-miterlimit:4;stroke-opacity:1;stroke-dasharray:none"
       id="path3911"
       sodipodi:cx="180"
       sodipodi:cy="332.36218"
       sodipodi:rx="20"
       sodipodi:ry="20"
       d="m 200,332.36218 a 20,20 0 1 1 -40,0 20,20 0 1 1 40,0 z"
       transform="matrix(0.14001964,0,0,0.13473599,509.27306,204.80464)" />
    <path
       transform="matrix(0.14001964,0,0,0.13473599,509.27313,188.38684)"
       d="m 200,332.36218 a 20,20 0 1 1 -40,0 20,20 0 1 1 40,0 z"
       sodipodi:ry="20"
       sodipodi:rx="20"
       sodipodi:cy="332.36218"
       sodipodi:cx="180"
       id="path3909"
       style="fill:#ffffff;fill-rule:evenodd;stroke:#ffffff;stroke-width:5;stroke-linecap:butt;stroke-linejoin:miter;stroke-miterlimit:4;stroke-opacity:1;stroke-dasharray:none"
       sodipodi:type="arc" />
    <path
       transform="matrix(0.14001963,0,0,0.13473597,475.84261,188.38685)"
       d="m 200,332.36218 a 20,20 0 1 1 -40,0 20,20 0 1 1 40,0 z"
       sodipodi:ry="20"
       sodipodi:rx="20"
       sodipodi:cy="332.36218"
       sodipodi:cx="180"
       id="path3782"
       style="fill:#ffffff;fill-rule:evenodd;stroke:#ffffff;stroke-width:5.00000525;stroke-linecap:butt;stroke-linejoin:miter;stroke-miterlimit:4;stroke-opacity:1;stroke-dasharray:none"
       sodipodi:type="arc" />
    <path
       transform="matrix(0.14001964,0,0,0.13473599,475.8426,221.57939)"
       d="m 200,332.36218 a 20,20 0 1 1 -40,0 20,20 0 1 1 40,0 z"
       sodipodi:ry="20"
       sodipodi:rx="20"
       sodipodi:cy="332.36218"
       sodipodi:cx="180"
       id="path3913"
       style="fill:#ffffff;fill-rule:evenodd;stroke:#ffffff;stroke-width:5;stroke-linecap:butt;stroke-linejoin:miter;stroke-miterlimit:4;stroke-opacity:1;stroke-dasharray:none"
       sodipodi:type="arc" />
    <path
       sodipodi:type="arc"
       style="fill:#ffffff;fill-rule:evenodd;stroke:#ffffff;stroke-width:5;stroke-linecap:butt;stroke-linejoin:miter;stroke-miterlimit:4;stroke-opacity:1;stroke-dasharray:none"
       id="path3068"
       sodipodi:cx="180"
       sodipodi:cy="332.36218"
       sodipodi:rx="20"
       sodipodi:ry="20"
       d="m 200,332.36218 a 20,20 0 1 1 -40,0 20,20 0 1 1 40,0 z"
       transform="matrix(0.14001964,0,0,0.13473599,492.49838,237.99719)" />
    <path
       sodipodi:type="arc"
       style="fill:#ffffff;fill-rule:evenodd;stroke:#ffffff;stroke-width:5;stroke-linecap:butt;stroke-linejoin:miter;stroke-miterlimit:4;stroke-opacity:1;stroke-dasharray:none"
       id="path3070"
       sodipodi:cx="180"
       sodipodi:cy="332.36218"
       sodipodi:rx="20"
       sodipodi:ry="20"
       d="m 200,332.36218 a 20,20 0 1 1 -40,0 20,20 0 1 1 40,0 z"
       transform="matrix(0.14001964,0,0,0.13473599,492.49838,171.8048)" />
    <path
       transform="matrix(0.14001964,0,0,0.13473599,509.27306,221.57939)"
       d="m 200,332.36218 a 20,20 0 1 1 -40,0 20,20 0 1 1 40,0 z"
       sodipodi:ry="20"
       sodipodi:rx="20"
       sodipodi:cy="332.36218"
       sodipodi:cx="180"
       id="path3072"
       style="fill:#ffffff;fill-rule:evenodd;stroke:#ffffff;stroke-width:5;stroke-linecap:butt;stroke-linejoin:miter;stroke-miterlimit:4;stroke-opacity:1;stroke-dasharray:none"
       sodipodi:type="arc" />
    <path
       transform="matrix(0.14001964,0,0,0.13473599,475.8426,204.80464)"
       d="m 200,332.36218 a 20,20 0 1 1 -40,0 20,20 0 1 1 40,0 z"
       sodipodi:ry="20"
       sodipodi:rx="20"
       sodipodi:cy="332.36218"
       sodipodi:cx="180"
       id="path3074"
       style="fill:#ffffff;fill-rule:evenodd;stroke:#ffffff;stroke-width:5;stroke-linecap:butt;stroke-linejoin:miter;stroke-miterlimit:4;stroke-opacity:1;stroke-dasharray:none"
       sodipodi:type="arc" />
    <path
       sodipodi:type="arc"
       style="fill:#ffffff;fill-rule:evenodd;stroke:#ffffff;stroke-width:5;stroke-linecap:butt;stroke-linejoin:miter;stroke-miterlimit:4;stroke-opacity:1;stroke-dasharray:none"
       id="path3803"
       sodipodi:cx="180"
       sodipodi:cy="332.36218"
       sodipodi:rx="20"
       sodipodi:ry="20"
       d="m 200,332.36218 a 20,20 0 1 1 -40,0 20,20 0 1 1 40,0 z"
       transform="matrix(0.14001964,0,0,0.13473599,492.49838,204.80464)" />
    <path
       inkscape:connector-curvature="0"
       id="path3927-6"
       d="m 493.25521,225.232 24.26083,-9.33108 24.26083,9.33108 9.33109,24.26083 -9.33109,24.26083"
       style="fill:none;stroke:#ffffff;stroke-width:0.83979797;stroke-linecap:butt;stroke-linejoin:miter;stroke-miterlimit:4;stroke-opacity:1;stroke-dasharray:none" />
    <path
       inkscape:connector-curvature="0"
       id="path3929-7"
       d="m 541.77687,273.75366 -24.26083,9.33109"
       style="fill:#ffffff;stroke:#ffffff;stroke-width:0.83979797;stroke-linecap:butt;stroke-linejoin:miter;stroke-miterlimit:4;stroke-opacity:1;stroke-dasharray:none" />
    <path
       inkscape:connector-curvature="0"
       id="path3931-5"
       d="m 517.51604,283.08475 -24.26083,-9.33109 -9.33108,-24.26083 9.33108,-24.26083"
       style="fill:none;stroke:#ffffff;stroke-width:0.83979797;stroke-linecap:butt;stroke-linejoin:miter;stroke-miterlimit:4;stroke-opacity:1;stroke-dasharray:none" />
  </g>
</svg>
