<?xml version="1.0" encoding="UTF-8" standalone="no"?>
<!-- Created with Inkscape (http://www.inkscape.org/) -->

<svg
   xmlns:dc="http://purl.org/dc/elements/1.1/"
   xmlns:cc="http://creativecommons.org/ns#"
   xmlns:rdf="http://www.w3.org/1999/02/22-rdf-syntax-ns#"
   xmlns:svg="http://www.w3.org/2000/svg"
   xmlns="http://www.w3.org/2000/svg"
   xmlns:sodipodi="http://sodipodi.sourceforge.net/DTD/sodipodi-0.dtd"
   xmlns:inkscape="http://www.inkscape.org/namespaces/inkscape"
   width="638.67621"
   height="199.07071"
   id="svg2"
   version="1.1"
   inkscape:version="0.48.4 r9939"
   sodipodi:docname="TinyDNN-logo&amp;letters-final-alpha-version.svg"
   inkscape:export-filename="/home/albert/Escriptori/tiny/theta curved gidolinya/TinyDNN-gidolinya-teal-sphere-small.png"
   inkscape:export-xdpi="90"
   inkscape:export-ydpi="90">
  <defs
     id="defs4" />
  <sodipodi:namedview
     id="base"
     pagecolor="#ffffff"
     bordercolor="#666666"
     borderopacity="1.0"
     inkscape:pageopacity="0.0"
     inkscape:pageshadow="2"
     inkscape:zoom="0.98994949"
     inkscape:cx="307.97808"
     inkscape:cy="79.034208"
     inkscape:document-units="px"
     inkscape:current-layer="capa1"
     showgrid="false"
     showguides="true"
     fit-margin-top="0"
     fit-margin-left="0"
     fit-margin-right="0"
     fit-margin-bottom="0"
     inkscape:guide-bbox="true"
     inkscape:window-width="1024"
     inkscape:window-height="713"
     inkscape:window-x="0"
     inkscape:window-y="27"
     inkscape:window-maximized="1">
    <inkscape:grid
       type="xygrid"
       id="grid2985"
       empspacing="5"
       visible="true"
       enabled="true"
       snapvisiblegridlinesonly="true"
       originx="71.190113px"
       originy="-653.54501px" />
  </sodipodi:namedview>
  <metadata
     id="metadata7">
    <rdf:RDF>
      <cc:Work
         rdf:about="">
        <dc:format>image/svg+xml</dc:format>
        <dc:type
           rdf:resource="http://purl.org/dc/dcmitype/StillImage" />
        <dc:title></dc:title>
      </cc:Work>
    </rdf:RDF>
  </metadata>
  <g
     inkscape:label="Capa 1"
     inkscape:groupmode="layer"
     id="capa1"
     transform="translate(71.190113,-199.74637)">
    <flowRoot
       xml:space="preserve"
       id="flowRoot3866"
       style="font-size:300px;font-style:normal;font-variant:normal;font-weight:normal;font-stretch:normal;line-height:125%;letter-spacing:0px;word-spacing:0px;fill:#000000;fill-opacity:1;stroke:none;font-family:Wingdings;-inkscape-font-specification:Wingdings"
       transform="translate(79.691507,-325.95823)"><flowRegion
         id="flowRegion3868"><rect
           id="rect3870"
           width="1264.7111"
           height="412.14224"
           x="-288.90363"
           y="399.10431"
           style="font-size:300px;font-style:normal;font-variant:normal;font-weight:normal;font-stretch:normal;font-family:Wingdings;-inkscape-font-specification:Wingdings" /></flowRegion><flowPara
         id="flowPara3872"><flowSpan
           style="font-style:normal;font-variant:normal;font-weight:normal;font-stretch:normal;line-height:162.00000048%;letter-spacing:-12.17000008px;fill:#008080;font-family:K1FS;-inkscape-font-specification:K1FS"
           id="flowSpan3874">tiny  </flowSpan><flowSpan
           id="flowSpan3057"
           style="font-style:normal;font-variant:normal;font-weight:normal;font-stretch:normal;line-height:162.00000048%;letter-spacing:-12.17000008px;fill:#000000;font-family:K1FS;-inkscape-font-specification:K1FS">dn</flowSpan><flowSpan
           style="font-style:normal;font-variant:normal;font-weight:normal;font-stretch:normal;line-height:162.00000048%;letter-spacing:-12.17000008px;fill:#000000;font-family:K1FS;-inkscape-font-specification:K1FS"
           id="flowSpan3039">n   </flowSpan></flowPara></flowRoot>    <g
       id="flowRoot3524"
       style="font-size:40px;font-style:normal;font-weight:normal;line-height:125%;letter-spacing:0px;word-spacing:0px;fill:#000000;fill-opacity:1;stroke:none;font-family:Sans"
       transform="translate(-10.364819,71.302661)" />
    <g
       id="g3845"
       inkscape:export-filename="/home/albert/Escriptori/tiny/FINAL LOGO/TinyDNN-logo&amp;letters-final-alpha-version.png"
       inkscape:export-xdpi="90"
       inkscape:export-ydpi="90">
      <path
         inkscape:connector-curvature="0"
         id="path3064"
         d="m 516.125,199.78125 c -27.38053,0.07 -50.76265,26.27154 -47.96875,53.53125 1.65229,26.00721 26.24777,47.8091 52.34375,45.71875 24.87612,-1.06267 46.69682,-23.12224 46.9375,-48.125 1.25043,-26.51962 -21.8057,-51.39285 -48.625,-51.15625 -0.89619,-0.0107 -1.79178,0.003 -2.6875,0.0313 z"
         style="fill:#ffffff;fill-rule:evenodd;stroke:none" />
      <path
         inkscape:connector-curvature="0"
         id="path3382"
         d="m 431.1875,256.34375 c -19.51916,0.0966 -37.00283,17.48113 -36.10567,37.24723 -1.14161,21.43996 -0.257,42.99719 -0.23808,64.40902 3.32951,6.53057 12.19884,1.65478 17.84375,3 6.55647,-1.68408 3.69334,-10.33806 3.625,-15.125 1.7178,-19.77136 -1.98198,-40.23435 2.1875,-59.6875 5.68135,-13.081 29.76871,-11.18644 31.1875,3.875 2.35534,18.46224 0.11426,37.29436 0.9375,55.90625 1.25156,4.39116 -2.55539,14.44282 1.98742,15.15106 6.61272,-0.90906 14.02822,1.94049 20.04383,-1.90106 C 471.7955,334.18139 474.34907,308.86999 471.125,284 466.87431,266.28702 449.11644,254.72207 431.1875,256.34375 z"
         style="font-size:200px;font-style:normal;font-variant:normal;font-weight:normal;font-stretch:normal;line-height:125%;letter-spacing:-6.60000134px;word-spacing:0px;fill:#ffffff;fill-opacity:1;stroke:none;font-family:Gidolinya;-inkscape-font-specification:Gidolinya" />
      <path
         inkscape:connector-curvature="0"
         id="path3376"
         d="m 346.3125,256.3125 c -19.34078,-0.23664 -37.25398,16.56609 -36.75,36.25 -1.29149,21.7752 -0.11769,43.71375 -0.4375,65.4375 2.89256,6.20929 11.00149,1.71192 16.09375,3.15625 5.68991,1.05745 7.09824,-5.86392 5.9375,-10.0625 -0.5665,-11.49638 0.50859,-23.11723 -0.21875,-34.6875 0.52191,-10.37932 -1.09394,-21.49017 2.53125,-31.375 6.66388,-11.65197 29.00237,-9.74832 30.5625,4.84375 2.53162,16.16047 0.14296,32.75515 1.03125,49.09375 0,7.45833 0,14.91667 0,22.375 7.25322,-1.52999 15.37334,1.99221 22.03125,-2.125 -0.79721,-24.8405 1.56793,-50.02753 -1.4375,-74.65625 -3.77454,-17.536 -21.54641,-29.70102 -39.34375,-28.25 z"
         style="font-size:200px;font-style:normal;font-variant:normal;font-weight:normal;font-stretch:normal;line-height:125%;letter-spacing:-6.60000134px;word-spacing:0px;fill:#ffffff;fill-opacity:1;stroke:none;font-family:Gidolinya;-inkscape-font-specification:Gidolinya" />
      <path
         inkscape:connector-curvature="0"
         id="path3370"
         d="m 299.28125,219.875 c -6.52936,0.81977 -13.83172,-1.90547 -19.78125,1.84375 -0.0416,13.63311 0.0833,27.5355 -0.0625,41 -19.45727,-14.5151 -51.66483,-3.28517 -57.28125,20.53125 -4.07523,15.23203 -3.13532,31.56783 -1.125,47.0625 4.04049,18.85446 22.32337,32.65769 41.5625,32.0625 17.75139,0.40157 35.60497,-12.22088 37.69996,-30.4798 2.79517,-17.53937 0.27138,-35.49538 1.20629,-53.2077 0,-19.6875 0,-39.375 0,-59.0625 -0.73958,0.0833 -1.47917,0.16667 -2.21875,0.25 z m -37.84375,57.5625 c 10.1798,-0.34945 18.2375,9.19825 17.4375,19.09375 0.80741,12.15254 1.97634,24.96282 -1.625,36.6875 -7.22016,12.92465 -29.89021,9.25866 -33.75,-4.84375 -3.16446,-11.17309 -2.25671,-23.36499 -1.25,-34.78125 0.7543,-8.91451 8.15659,-16.6089 17.34375,-16.09375 0.61526,0.01 1.22875,-0.065 1.84375,-0.0625 z"
         style="font-size:200px;font-style:normal;font-variant:normal;font-weight:normal;font-stretch:normal;line-height:125%;letter-spacing:-6.60000134px;word-spacing:0px;fill:#ffffff;fill-opacity:1;stroke:none;font-family:Gidolinya;-inkscape-font-specification:Gidolinya" />
      <path
         inkscape:connector-curvature="0"
         id="path3362"
         d="m 168.71875,309.78125 c -2.1124,8.22522 7.98262,5.80823 12.90485,6.20692 11.3338,0.18103 22.6676,0.36205 34.0014,0.54308 5.35598,-2.80151 0.28832,-10.0355 -4.65625,-8.40625 -13.34983,1.02045 -26.79435,-0.60979 -40.21875,-0.3125 -0.67708,0.65625 -1.35417,1.3125 -2.03125,1.96875 z"
         style="fill:#ffffff;stroke:#ffffff;stroke-width:14;stroke-linecap:butt;stroke-linejoin:miter;stroke-miterlimit:0;stroke-opacity:1;stroke-dasharray:none" />
      <path
         inkscape:connector-curvature="0"
         id="path3356"
         d="m 92.53125,260.0625 c 9.59219,30.03742 17.11627,60.82604 27.9375,90.40625 2.74661,5.12364 7.75658,8.71273 13.21875,10.46875 -1.53714,6.02832 -1.82904,16.19758 -10.03125,16.71875 -4.25392,0.19499 -8.30149,-1.45022 -12.21875,-3 -2.26967,6.65132 -4.46829,13.32158 -6.75,19.96875 14.34665,7.47653 35.47024,5.40851 43.71875,-9.90625 7.39841,-13.83372 7.63941,-30.09163 12.03851,-44.93659 6.06482,-27.44364 12.11613,-54.89055 18.27399,-82.31341 -7.54167,0 -15.08333,0 -22.625,0 -6.11573,26.82471 -11.29948,54.41132 -17.75,80.84375 -7.7816,-26.781 -15.87727,-53.88359 -23.625,-80.84375 -7.65625,0 -15.3125,0 -22.96875,0 0.260417,0.86458 0.520833,1.72917 0.78125,2.59375 z"
         style="font-size:40px;font-style:normal;font-weight:normal;line-height:125%;letter-spacing:0px;word-spacing:0px;fill:#ffffff;fill-opacity:1;stroke:none;font-family:Gidolinya;-inkscape-font-specification:Gidolinya" />
      <path
         inkscape:connector-curvature="0"
         id="path3350"
         d="m 54.03125,256.34375 c -19.519162,0.0966 -37.002833,17.48113 -36.10567,37.24723 -1.141614,21.43996 -0.256997,42.99719 -0.23808,64.40902 3.329514,6.53057 12.19884,1.65478 17.84375,3 6.556468,-1.68408 3.693337,-10.33806 3.625,-15.125 1.717797,-19.77136 -1.98198,-40.23435 2.1875,-59.6875 5.681351,-13.081 29.768705,-11.18644 31.1875,3.875 2.355343,18.46224 0.114262,37.29436 0.9375,55.90625 1.251564,4.39116 -2.555386,14.44282 1.987424,15.15106 C 82.068886,360.21075 89.484392,363.0603 95.5,359.21875 94.639246,334.18139 97.192824,308.86999 93.96875,284 89.718064,266.28702 71.960191,254.72207 54.03125,256.34375 z"
         style="font-size:40px;font-style:normal;font-weight:normal;line-height:125%;letter-spacing:0px;word-spacing:0px;fill:#ffffff;fill-opacity:1;stroke:none;font-family:Gidolinya;-inkscape-font-specification:Gidolinya" />
      <path
         inkscape:connector-curvature="0"
         id="path3344"
         d="m -51.28125,234.875 c -6.529361,0.81977 -13.831725,-1.90547 -19.78125,1.84375 0.506866,34.19817 -1.039516,68.48052 0.8125,102.625 2.729207,16.17418 20.774137,26.17754 36.28125,22.3125 6.182273,-1.21325 11.951467,-3.80818 17.53125,-6.78125 -3.245563,-6.33542 -6.477027,-12.67797 -9.6875,-19.03125 -5.895504,3.25077 -14.767872,8.25669 -20.8125,2.84375 -3.811227,-7.58425 -1.733003,-16.99442 -2,-25.3125 -0.105793,-11.83038 -0.169464,-23.66478 -0.125,-35.5 8.145833,0 16.291667,0 24.4375,0 -2.56356,-6.37535 3.076876,-15.19922 -3.125,-20 -6.907937,-0.98818 -14.246127,-0.10602 -21.3125,-0.40625 0,-7.61458 0,-15.22917 0,-22.84375 -0.739583,0.0833 -1.479167,0.16667 -2.21875,0.25 z"
         style="font-size:40px;font-style:normal;font-weight:normal;line-height:125%;letter-spacing:0px;word-spacing:0px;fill:#ffffff;fill-opacity:1;stroke:none;font-family:Gidolinya;-inkscape-font-specification:Gidolinya" />
      <path
         inkscape:connector-curvature="0"
         id="path3338"
         d="m -3.3125,223.25 c -11.927945,-0.58573 -17.417411,17.01372 -8.09375,23.9375 8.2860765,7.37174 23.575217,0.001 22.0625,-11.28125 C 10.540402,228.70754 3.8429151,222.70711 -3.3125,223.25 z m 9.34375,34.21875 c -6.52936071,0.81977 -13.8317245,-1.90547 -19.78125,1.84375 0,34.01042 0,68.02083 0,102.03125 7.2445494,-1.52128 15.3329229,1.96777 22,-2.09375 0,-34.01042 0,-68.02083 0,-102.03125 -0.7395833,0.0833 -1.4791667,0.16667 -2.21875,0.25 z"
         style="font-size:40px;font-style:normal;font-weight:normal;line-height:125%;letter-spacing:0px;word-spacing:0px;fill:#ffffff;fill-opacity:1;stroke:none;font-family:Gidolinya;-inkscape-font-specification:Gidolinya" />
      <path
         style="fill:none;stroke:#808080;stroke-width:14;stroke-linecap:butt;stroke-linejoin:miter;stroke-miterlimit:0;stroke-opacity:1;stroke-dasharray:none"
         d="m 170.69993,311.80453 45,0.71428"
         id="path4697"
         inkscape:connector-curvature="0" />
      <path
         d="m -53.052319,323.07823 0,-49.2 24,0 0,-12.4 -24,0 0,-22.6 -14,0 0,84.2 c 0,11.39999 6e-6,19.00001 5.6,26 4.399996,5.59999 11.800009,9.2 20.6,9.2 7.199993,0 13.600005,-2.4 19,-5.2 l -6,-11.8 c -4.599995,2.4 -9.200004,3.8 -13,3.8 -4.399996,0 -7.400002,-1.6 -9.4,-4 -2.799997,-3.6 -2.8,-7.20001 -2.8,-18"
         style="font-size:40px;font-style:normal;font-weight:normal;line-height:125%;letter-spacing:0px;word-spacing:0px;fill:#008080;fill-opacity:1;stroke:none;font-family:Gidolinya;-inkscape-font-specification:Gidolinya"
         id="path3123"
         inkscape:connector-curvature="0" />
      <path
         d="m -2.7616963,227.27823 c -5.3999946,0 -9.3999997,3.8 -9.3999997,9.4 0,5.59999 4.0000051,9.4 9.3999997,9.4 5.3999943,0 9.4000003,-3.80001 9.4000003,-9.4 0,-5.6 -4.000006,-9.4 -9.4000003,-9.4 m -7,129.8 14.0000003,0 0,-95.6 -14.0000003,0 0,95.6"
         style="font-size:40px;font-style:normal;font-weight:normal;line-height:125%;letter-spacing:0px;word-spacing:0px;fill:#008080;fill-opacity:1;stroke:none;font-family:Gidolinya;-inkscape-font-specification:Gidolinya"
         id="path3125"
         inkscape:connector-curvature="0" />
      <path
         d="m 56.482051,260.27823 c -12.199987,0 -20.800004,5.2 -25.6,10.2 -9.39999,9.79999 -9.4,21.40001 -9.4,35.4 l 0,51.2 14,0 0,-51.2 c 0,-12.39999 6e-6,-20.80001 5.8,-26.6 3.399997,-3.4 8.600007,-5.8 15.2,-5.8 6.599994,0 11.800004,2.4 15.2,5.8 5.799995,5.79999 5.8,14.20001 5.8,26.6 l 0,51.2 14,0 0,-51.2 c 0,-13.99999 -1e-5,-25.60001 -9.4,-35.4 -4.799995,-5 -13.400012,-10.2 -25.6,-10.2"
         style="font-size:40px;font-style:normal;font-weight:normal;line-height:125%;letter-spacing:0px;word-spacing:0px;fill:#008080;fill-opacity:1;stroke:none;font-family:Gidolinya;-inkscape-font-specification:Gidolinya"
         id="path3127"
         inkscape:connector-curvature="0" />
      <path
         d="m 97.116431,261.47823 20.199999,67.4 c 4.39999,14.39998 5.2,18 8.2,22 2.79999,3.59999 7.4,6.2 13,7 -2.8,12.99999 -4.00001,17.6 -6.8,20.4 -2.2,2.2 -4.80001,3.4 -8.6,3.4 -3,0 -6.00001,-0.6 -9.2,-1.8 l -4.2,12.4 c 4.39999,1.6 9,2.6 13.4,2.6 8.39999,0 15.2,-3.80001 19.4,-8.6 4.39999,-5 6,-11.20001 8.2,-21 l 23,-103.8 -14.4,0 -18,83.4 c -2,-0.2 -4,-0.6 -5.2,-2.4 -1.2,-1.8 -2.60001,-6.20001 -5.6,-16.6 l -18.8,-64.4 -14.599999,0"
         style="font-size:40px;font-style:normal;font-weight:normal;line-height:125%;letter-spacing:0px;word-spacing:0px;fill:#008080;fill-opacity:1;stroke:none;font-family:Gidolinya;-inkscape-font-specification:Gidolinya"
         id="path3129"
         inkscape:connector-curvature="0" />
      <path
         d="m 259.51018,260.27823 c -11.79999,0 -21.20001,4.80001 -27,11.8 -8.99999,10.79999 -9,24.00001 -9,37.6 0,12.19999 1e-5,26.20001 11.2,37.6 6.19999,6.19999 15.80001,11 27.8,11 12.59999,0 22.60001,-5.40001 28.2,-13.2 6.79999,-9.39999 6.8,-19.40002 6.8,-34.4 l 0,-86.8 -14,0 0,48.6 c -5.39999,-7.59999 -14.20001,-12.2 -24,-12.2 m 24,53 c 0,10.59999 0,19.2 -4.8,25 -4,4.79999 -10.00001,6.8 -16.2,6.8 -6.79999,0 -13.6,-2.40001 -18,-7.2 -6.99999,-7.59999 -7,-18.00001 -7,-28.2 0,-11.19999 1e-5,-22.20001 6,-29.2 3.6,-4.2 9.40001,-7 17,-7 7.59999,0 13.4,2.8 17,7 5.99999,6.99999 6,18.00001 6,32.8"
         style="font-size:200px;font-style:normal;font-variant:normal;font-weight:normal;font-stretch:normal;line-height:125%;letter-spacing:-6.60000134px;word-spacing:0px;fill:#000000;fill-opacity:1;stroke:none;font-family:Gidolinya;-inkscape-font-specification:Gidolinya"
         id="path3131"
         inkscape:connector-curvature="0" />
      <path
         d="m 348.0508,260.27823 c -12.19999,0 -20.80001,5.2 -25.6,10.2 -9.39999,9.79999 -9.4,21.40001 -9.4,35.4 l 0,51.2 14,0 0,-51.2 c 0,-12.39999 0,-20.80001 5.8,-26.6 3.4,-3.4 8.60001,-5.8 15.2,-5.8 6.59999,0 11.8,2.4 15.2,5.8 5.79999,5.79999 5.8,14.20001 5.8,26.6 l 0,51.2 14,0 0,-51.2 c 0,-13.99999 -10e-6,-25.60001 -9.4,-35.4 -4.8,-5 -13.40001,-10.2 -25.6,-10.2"
         style="font-size:200px;font-style:normal;font-variant:normal;font-weight:normal;font-stretch:normal;line-height:125%;letter-spacing:-6.60000134px;word-spacing:0px;fill:#000000;fill-opacity:1;stroke:none;font-family:Gidolinya;-inkscape-font-specification:Gidolinya"
         id="path3133"
         inkscape:connector-curvature="0" />
      <path
         d="m 433.63829,260.27823 c -12.19999,0 -20.8,5.2 -25.6,10.2 -9.39999,9.79999 -9.4,21.40001 -9.4,35.4 l 0,51.2 14,0 0,-51.2 c 0,-12.39999 1e-5,-20.80001 5.8,-26.6 3.4,-3.4 8.60001,-5.8 15.2,-5.8 6.6,0 11.80001,2.4 15.2,5.8 5.8,5.79999 5.8,14.20001 5.8,26.6 l 0,51.2 14,0 0,-51.2 c 0,-13.99999 -10e-6,-25.60001 -9.4,-35.4 -4.79999,-5 -13.40001,-10.2 -25.6,-10.2"
         style="font-size:200px;font-style:normal;font-variant:normal;font-weight:normal;font-stretch:normal;line-height:125%;letter-spacing:-6.60000134px;word-spacing:0px;fill:#000000;fill-opacity:1;stroke:none;font-family:Gidolinya;-inkscape-font-specification:Gidolinya"
         id="path3135"
         inkscape:connector-curvature="0" />
      <path
         sodipodi:type="arc"
         style="fill:#008080;fill-rule:evenodd;stroke:none"
         id="path3043-3"
         sodipodi:cx="498.57141"
         sodipodi:cy="549.56696"
         sodipodi:rx="581.42853"
         sodipodi:ry="608.57141"
         d="m 1079.9999,549.56696 c 0,336.10471 -260.31438,608.57144 -581.42849,608.57144 -321.11411,0 -581.428527,-272.46673 -581.428527,-608.57144 0,-336.10471 260.314417,-608.571416 581.428527,-608.571416 321.11411,0 581.42849,272.466706 581.42849,608.571416 z"
         transform="matrix(0.07823882,0,0,0.07474929,478.71647,208.30864)" />
      <path
         style="fill:none;stroke:#ffffff;stroke-width:2.5400188;stroke-linecap:butt;stroke-linejoin:miter;stroke-miterlimit:4;stroke-opacity:1;stroke-dasharray:none"
         d="m 534.28989,266.86518 c 0.83735,8.84789 -5.04922,14.59594 -16.65575,16.65575"
         id="path3044"
         inkscape:connector-curvature="0"
         sodipodi:nodetypes="cc" />
      <path
         sodipodi:nodetypes="cc"
         inkscape:connector-curvature="0"
         id="path3042"
         d="m 501.16513,266.86518 c -0.83734,8.84789 5.04923,14.59594 16.65576,16.65575"
         style="fill:none;stroke:#ffffff;stroke-width:2.5400188;stroke-linecap:butt;stroke-linejoin:miter;stroke-miterlimit:4;stroke-opacity:1;stroke-dasharray:none" />
      <path
         sodipodi:nodetypes="cc"
         inkscape:connector-curvature="0"
         id="path3040"
         d="m 534.29822,232.75419 c 0.83735,-8.84788 -5.04923,-14.59593 -16.65575,-16.65574"
         style="fill:none;stroke:#ffffff;stroke-width:2.5400188;stroke-linecap:butt;stroke-linejoin:miter;stroke-miterlimit:4;stroke-opacity:1;stroke-dasharray:none" />
      <path
         style="fill:#ffffff;stroke:#ffffff;stroke-width:0.74950892;stroke-linecap:butt;stroke-linejoin:miter;stroke-miterlimit:4;stroke-opacity:1;stroke-dasharray:none"
         d="M 551.13239,249.71805 534.47664,233.0623"
         id="path3872"
         inkscape:connector-curvature="0" />
      <path
         style="fill:none;stroke:#ffffff;stroke-width:0.74950892;stroke-linecap:butt;stroke-linejoin:miter;stroke-miterlimit:4;stroke-opacity:1;stroke-dasharray:none"
         d="M 484.50938,249.71805 501.16513,233.0623"
         id="path3870"
         inkscape:connector-curvature="0" />
      <path
         style="fill:#ffffff;stroke:#ffffff;stroke-width:0.74950892;stroke-linecap:butt;stroke-linejoin:miter;stroke-miterlimit:4;stroke-opacity:1;stroke-dasharray:none"
         d="m 551.13239,249.71806 -16.65575,0"
         id="path3812"
         inkscape:connector-curvature="0" />
      <path
         style="fill:none;stroke:#ffffff;stroke-width:2.5400188;stroke-linecap:butt;stroke-linejoin:miter;stroke-miterlimit:4;stroke-opacity:1;stroke-dasharray:none"
         d="m 534.47664,249.71806 -16.65575,0"
         id="path3810"
         inkscape:connector-curvature="0" />
      <path
         style="fill:none;stroke:#ffffff;stroke-width:2.5400188;stroke-linecap:butt;stroke-linejoin:miter;stroke-miterlimit:4;stroke-opacity:1;stroke-dasharray:none"
         d="m 517.82089,249.71806 -16.65576,0"
         id="path3807"
         inkscape:connector-curvature="0" />
      <path
         style="fill:#ffffff;stroke:#ffffff;stroke-width:0.74950892;stroke-linecap:butt;stroke-linejoin:miter;stroke-miterlimit:4;stroke-opacity:1;stroke-dasharray:none"
         d="m 484.50938,249.71806 16.65575,0"
         id="path3805"
         inkscape:connector-curvature="0" />
      <path
         style="fill:none;stroke:#ffffff;stroke-width:2.5400188;stroke-linecap:butt;stroke-linejoin:miter;stroke-miterlimit:4;stroke-opacity:1;stroke-dasharray:none"
         d="m 501.16513,232.75419 c -0.83734,-8.84788 5.04923,-14.59593 16.65576,-16.65574"
         id="path3031"
         inkscape:connector-curvature="0"
         sodipodi:nodetypes="cc" />
      <path
         style="fill:#999999;stroke:#ffffff;stroke-width:0.74950892;stroke-linecap:butt;stroke-linejoin:miter;stroke-miterlimit:4;stroke-opacity:1;stroke-dasharray:none"
         d="m 484.50938,249.71806 16.65575,16.65575"
         id="path3797"
         inkscape:connector-curvature="0" />
      <path
         style="fill:#ffffff;stroke:#ffffff;stroke-width:0.74950892;stroke-linecap:butt;stroke-linejoin:miter;stroke-miterlimit:4;stroke-opacity:1;stroke-dasharray:none"
         d="m 551.13239,249.71806 -16.65575,16.65575"
         id="path3801"
         inkscape:connector-curvature="0" />
      <path
         style="fill:none;stroke:#ffffff;stroke-width:0.74950892;stroke-linecap:butt;stroke-linejoin:miter;stroke-miterlimit:4;stroke-opacity:1;stroke-dasharray:none"
         d="M 517.82089,249.71806 501.16513,233.06231"
         id="path3813"
         inkscape:connector-curvature="0" />
      <path
         style="fill:#ffffff;stroke:#ffffff;stroke-width:0.74950892;stroke-linecap:butt;stroke-linejoin:miter;stroke-miterlimit:4;stroke-opacity:1;stroke-dasharray:none"
         d="m 517.82089,249.71806 16.65575,-16.65575"
         id="path3819"
         inkscape:connector-curvature="0" />
      <path
         style="fill:#ffffff;stroke:#ffffff;stroke-width:0.74950892;stroke-linecap:butt;stroke-linejoin:miter;stroke-miterlimit:4;stroke-opacity:1;stroke-dasharray:none"
         d="m 517.82089,249.71806 0,16.65575"
         id="path3039"
         inkscape:connector-curvature="0" />
      <path
         style="fill:#ffffff;stroke:#ffffff;stroke-width:0.74950892;stroke-linecap:butt;stroke-linejoin:miter;stroke-miterlimit:4;stroke-opacity:1;stroke-dasharray:none"
         d="m 517.82089,233.06231 0,16.65575"
         id="path3862"
         inkscape:connector-curvature="0" />
      <path
         style="fill:#ffffff;stroke:#ffffff;stroke-width:0.83979797;stroke-linecap:butt;stroke-linejoin:miter;stroke-miterlimit:4;stroke-opacity:1;stroke-dasharray:none"
         d="m 534.33821,233.20074 8.40271,-8.40271"
         id="path3822"
         inkscape:connector-curvature="0" />
      <path
         style="fill:#000000;stroke:#ffffff;stroke-width:0.83979797;stroke-linecap:butt;stroke-linejoin:miter;stroke-miterlimit:4;stroke-opacity:1;stroke-dasharray:none"
         d="m 501.32841,233.22558 -7.5193,-7.51929"
         id="path3817"
         inkscape:connector-curvature="0" />
      <path
         style="fill:none;stroke:#ffffff;stroke-width:0.74950892;stroke-linecap:butt;stroke-linejoin:miter;stroke-miterlimit:4;stroke-opacity:1;stroke-dasharray:none"
         d="m 501.16513,266.37381 16.65576,-16.65575"
         id="path3815"
         inkscape:connector-curvature="0" />
      <path
         style="fill:none;stroke:#ffffff;stroke-width:0.83979797;stroke-linecap:butt;stroke-linejoin:miter;stroke-miterlimit:4;stroke-opacity:1;stroke-dasharray:none"
         d="m 534.33466,266.23184 8.27651,8.2765"
         id="path3811"
         inkscape:connector-curvature="0" />
      <path
         style="fill:#ffffff;stroke:#ffffff;stroke-width:0.74950892;stroke-linecap:butt;stroke-linejoin:miter;stroke-miterlimit:4;stroke-opacity:1;stroke-dasharray:none"
         d="m 517.82089,249.71806 16.65575,16.65575"
         id="path3809"
         inkscape:connector-curvature="0" />
      <path
         style="fill:none;stroke:#ffffff;stroke-width:0.74950892;stroke-linecap:butt;stroke-linejoin:miter;stroke-miterlimit:4;stroke-opacity:1;stroke-dasharray:none"
         d="m 517.82089,216.40656 0,16.65575"
         id="path3926"
         inkscape:connector-curvature="0" />
      <path
         style="fill:#ffffff;stroke:#ffffff;stroke-width:2.5400188;stroke-linecap:butt;stroke-linejoin:miter;stroke-miterlimit:4;stroke-opacity:1;stroke-dasharray:none"
         d="m 534.47664,233.06231 0,16.65575 0,16.65575"
         id="path3905"
         inkscape:connector-curvature="0" />
      <path
         style="fill:none;stroke:#ffffff;stroke-width:2.5400188;stroke-linecap:butt;stroke-linejoin:miter;stroke-miterlimit:4;stroke-opacity:1;stroke-dasharray:none"
         d="m 501.16513,233.06231 0,16.65575 0,16.65575"
         id="path3901"
         inkscape:connector-curvature="0" />
      <path
         style="fill:none;stroke:#ffffff;stroke-width:0.74950892;stroke-linecap:butt;stroke-linejoin:miter;stroke-miterlimit:4;stroke-opacity:1;stroke-dasharray:none"
         d="m 501.16513,266.37381 16.65576,0 16.65575,0"
         id="path3880"
         inkscape:connector-curvature="0" />
      <path
         style="fill:none;stroke:#ffffff;stroke-width:0.74950892;stroke-linecap:butt;stroke-linejoin:miter;stroke-miterlimit:4;stroke-opacity:1;stroke-dasharray:none"
         d="m 500.99689,233.06231 16.65575,0 16.65575,0"
         id="path3878"
         inkscape:connector-curvature="0" />
      <path
         style="fill:none;stroke:#ffffff;stroke-width:0.83979797;stroke-linecap:butt;stroke-linejoin:miter;stroke-miterlimit:4;stroke-opacity:1;stroke-dasharray:none"
         d="m 492.63777,274.63457 8.66227,-8.39566"
         id="path3868"
         inkscape:connector-curvature="0" />
      <path
         style="fill:none;stroke:#ffffff;stroke-width:0.74950892;stroke-linecap:butt;stroke-linejoin:miter;stroke-miterlimit:4;stroke-opacity:1;stroke-dasharray:none"
         d="m 517.82089,266.37381 0,16.65576"
         id="path3849"
         inkscape:connector-curvature="0" />
      <path
         sodipodi:type="arc"
         style="fill:#e6e6e6;fill-rule:evenodd;stroke:#ffffff;stroke-width:5;stroke-linecap:butt;stroke-linejoin:miter;stroke-miterlimit:4;stroke-opacity:1;stroke-dasharray:none"
         id="path2987"
         sodipodi:cx="180"
         sodipodi:cy="332.36218"
         sodipodi:rx="20"
         sodipodi:ry="20"
         d="m 200,332.36218 c 0,11.0457 -8.95431,20 -20,20 -11.04569,0 -20,-8.9543 -20,-20 0,-11.04569 8.95431,-20 20,-20 11.04569,0 20,8.95431 20,20 z"
         transform="matrix(0.08327876,0,0,0.08327876,502.83071,222.15832)" />
      <path
         transform="matrix(0.08327876,0,0,0.08327876,519.48646,222.15832)"
         d="m 200,332.36218 c 0,11.0457 -8.95431,20 -20,20 -11.04569,0 -20,-8.9543 -20,-20 0,-11.04569 8.95431,-20 20,-20 11.04569,0 20,8.95431 20,20 z"
         sodipodi:ry="20"
         sodipodi:rx="20"
         sodipodi:cy="332.36218"
         sodipodi:cx="180"
         id="path3757"
         style="fill:#ffffff;fill-rule:evenodd;stroke:#ffffff;stroke-width:5;stroke-linecap:butt;stroke-linejoin:miter;stroke-miterlimit:4;stroke-opacity:1;stroke-dasharray:none"
         sodipodi:type="arc" />
      <path
         transform="matrix(0.08327876,0,0,0.08327876,486.056,222.15832)"
         d="m 200,332.36218 c 0,11.0457 -8.95431,20 -20,20 -11.04569,0 -20,-8.9543 -20,-20 0,-11.04569 8.95431,-20 20,-20 11.04569,0 20,8.95431 20,20 z"
         sodipodi:ry="20"
         sodipodi:rx="20"
         sodipodi:cy="332.36218"
         sodipodi:cx="180"
         id="path3759"
         style="fill:#e6e6e6;fill-rule:evenodd;stroke:#ffffff;stroke-width:5;stroke-linecap:butt;stroke-linejoin:miter;stroke-miterlimit:4;stroke-opacity:1;stroke-dasharray:none"
         sodipodi:type="arc" />
      <path
         sodipodi:type="arc"
         style="fill:#ffffff;fill-rule:evenodd;stroke:#ffffff;stroke-width:5;stroke-linecap:butt;stroke-linejoin:miter;stroke-miterlimit:4;stroke-opacity:1;stroke-dasharray:none"
         id="path3761"
         sodipodi:cx="180"
         sodipodi:cy="332.36218"
         sodipodi:rx="20"
         sodipodi:ry="20"
         d="m 200,332.36218 c 0,11.0457 -8.95431,20 -20,20 -11.04569,0 -20,-8.9543 -20,-20 0,-11.04569 8.95431,-20 20,-20 11.04569,0 20,8.95431 20,20 z"
         transform="matrix(0.08327876,0,0,0.08327876,469.63817,222.15832)" />
      <path
         sodipodi:type="arc"
         style="fill:#ffffff;fill-rule:evenodd;stroke:#ffffff;stroke-width:5;stroke-linecap:butt;stroke-linejoin:miter;stroke-miterlimit:4;stroke-opacity:1;stroke-dasharray:none"
         id="path3763"
         sodipodi:cx="180"
         sodipodi:cy="332.36218"
         sodipodi:rx="20"
         sodipodi:ry="20"
         d="m 200,332.36218 c 0,11.0457 -8.95431,20 -20,20 -11.04569,0 -20,-8.9543 -20,-20 0,-11.04569 8.95431,-20 20,-20 11.04569,0 20,8.95431 20,20 z"
         transform="matrix(0.08308214,0,0,0.08329034,536.29241,222.15449)" />
      <path
         transform="matrix(0.08327876,0,0,0.08327876,502.94968,205.14566)"
         d="m 200,332.36218 c 0,11.0457 -8.95431,20 -20,20 -11.04569,0 -20,-8.9543 -20,-20 0,-11.04569 8.95431,-20 20,-20 11.04569,0 20,8.95431 20,20 z"
         sodipodi:ry="20"
         sodipodi:rx="20"
         sodipodi:cy="332.36218"
         sodipodi:cx="180"
         id="path3778"
         style="fill:#ffffff;fill-rule:evenodd;stroke:#ffffff;stroke-width:5;stroke-linecap:butt;stroke-linejoin:miter;stroke-miterlimit:4;stroke-opacity:1;stroke-dasharray:none"
         sodipodi:type="arc" />
      <path
         sodipodi:type="arc"
         style="fill:#ffffff;fill-rule:evenodd;stroke:#ffffff;stroke-width:5;stroke-linecap:butt;stroke-linejoin:miter;stroke-miterlimit:4;stroke-opacity:1;stroke-dasharray:none"
         id="path3780"
         sodipodi:cx="180"
         sodipodi:cy="332.36218"
         sodipodi:rx="20"
         sodipodi:ry="20"
         d="m 200,332.36218 c 0,11.0457 -8.95431,20 -20,20 -11.04569,0 -20,-8.9543 -20,-20 0,-11.04569 8.95431,-20 20,-20 11.04569,0 20,8.95431 20,20 z"
         transform="matrix(0.08327876,0,0,0.08327876,519.7244,205.26463)" />
      <path
         sodipodi:type="arc"
         style="fill:#ffffff;fill-rule:evenodd;stroke:#ffffff;stroke-width:5;stroke-linecap:butt;stroke-linejoin:miter;stroke-miterlimit:4;stroke-opacity:1;stroke-dasharray:none"
         id="path3784"
         sodipodi:cx="180"
         sodipodi:cy="332.36218"
         sodipodi:rx="20"
         sodipodi:ry="20"
         d="m 200,332.36218 c 0,11.0457 -8.95431,20 -20,20 -11.04569,0 -20,-8.9543 -20,-20 0,-11.04569 8.95431,-20 20,-20 11.04569,0 20,8.95431 20,20 z"
         transform="matrix(0.08327876,0,0,0.08327876,502.83071,238.81407)" />
      <path
         transform="matrix(0.08327876,0,0,0.08327876,519.48643,238.81407)"
         d="m 200,332.36218 c 0,11.0457 -8.95431,20 -20,20 -11.04569,0 -20,-8.9543 -20,-20 0,-11.04569 8.95431,-20 20,-20 11.04569,0 20,8.95431 20,20 z"
         sodipodi:ry="20"
         sodipodi:rx="20"
         sodipodi:cy="332.36218"
         sodipodi:cx="180"
         id="path3786"
         style="fill:#ffffff;fill-rule:evenodd;stroke:#ffffff;stroke-width:5;stroke-linecap:butt;stroke-linejoin:miter;stroke-miterlimit:4;stroke-opacity:1;stroke-dasharray:none"
         sodipodi:type="arc" />
      <path
         transform="matrix(0.08327876,0,0,0.08327876,486.05599,238.81407)"
         d="m 200,332.36218 c 0,11.0457 -8.95431,20 -20,20 -11.04569,0 -20,-8.9543 -20,-20 0,-11.04569 8.95431,-20 20,-20 11.04569,0 20,8.95431 20,20 z"
         sodipodi:ry="20"
         sodipodi:rx="20"
         sodipodi:cy="332.36218"
         sodipodi:cx="180"
         id="path3788"
         style="fill:#e6e6e6;fill-rule:evenodd;stroke:#808080;stroke-width:5;stroke-linecap:butt;stroke-linejoin:miter;stroke-miterlimit:4;stroke-opacity:1;stroke-dasharray:none"
         sodipodi:type="arc" />
      <path
         transform="matrix(0.08327876,0,0,0.08327876,502.71174,255.35086)"
         d="m 200,332.36218 c 0,11.0457 -8.95431,20 -20,20 -11.04569,0 -20,-8.9543 -20,-20 0,-11.04569 8.95431,-20 20,-20 11.04569,0 20,8.95431 20,20 z"
         sodipodi:ry="20"
         sodipodi:rx="20"
         sodipodi:cy="332.36218"
         sodipodi:cx="180"
         id="path3790"
         style="fill:#e6e6e6;fill-rule:evenodd;stroke:#808080;stroke-width:5;stroke-linecap:butt;stroke-linejoin:miter;stroke-miterlimit:4;stroke-opacity:1;stroke-dasharray:none"
         sodipodi:type="arc" />
      <path
         sodipodi:type="arc"
         style="fill:#e6e6e6;fill-rule:evenodd;stroke:#ffffff;stroke-width:5;stroke-linecap:butt;stroke-linejoin:miter;stroke-miterlimit:4;stroke-opacity:1;stroke-dasharray:none"
         id="path3792"
         sodipodi:cx="180"
         sodipodi:cy="332.36218"
         sodipodi:rx="20"
         sodipodi:ry="20"
         d="m 200,332.36218 c 0,11.0457 -8.95431,20 -20,20 -11.04569,0 -20,-8.9543 -20,-20 0,-11.04569 8.95431,-20 20,-20 11.04569,0 20,8.95431 20,20 z"
         transform="matrix(0.08327876,0,0,0.08327876,502.71175,188.84682)" />
      <path
         transform="matrix(0.08327876,0,0,0.08327876,478.33008,197.92425)"
         d="m 200,332.36218 c 0,11.0457 -8.95431,20 -20,20 -11.04569,0 -20,-8.9543 -20,-20 0,-11.04569 8.95431,-20 20,-20 11.04569,0 20,8.95431 20,20 z"
         sodipodi:ry="20"
         sodipodi:rx="20"
         sodipodi:cy="332.36218"
         sodipodi:cx="180"
         id="path3794"
         style="fill:#ffffff;fill-rule:evenodd;stroke:#ffffff;stroke-width:5;stroke-linecap:butt;stroke-linejoin:miter;stroke-miterlimit:4;stroke-opacity:1;stroke-dasharray:none"
         sodipodi:type="arc" />
      <path
         sodipodi:type="arc"
         style="fill:#ffffff;fill-rule:evenodd;stroke:#ffffff;stroke-width:5;stroke-linecap:butt;stroke-linejoin:miter;stroke-miterlimit:4;stroke-opacity:1;stroke-dasharray:none"
         id="path3796"
         sodipodi:cx="180"
         sodipodi:cy="332.36218"
         sodipodi:rx="20"
         sodipodi:ry="20"
         d="m 200,332.36218 c 0,11.0457 -8.95431,20 -20,20 -11.04569,0 -20,-8.9543 -20,-20 0,-11.04569 8.95431,-20 20,-20 11.04569,0 20,8.95431 20,20 z"
         transform="matrix(0.08327876,0,0,0.08327876,526.79818,197.92424)" />
      <path
         sodipodi:type="arc"
         style="fill:#ffffff;fill-rule:evenodd;stroke:#ffffff;stroke-width:5;stroke-linecap:butt;stroke-linejoin:miter;stroke-miterlimit:4;stroke-opacity:1;stroke-dasharray:none"
         id="path3798"
         sodipodi:cx="180"
         sodipodi:cy="332.36218"
         sodipodi:rx="20"
         sodipodi:ry="20"
         d="m 200,332.36218 c 0,11.0457 -8.95431,20 -20,20 -11.04569,0 -20,-8.9543 -20,-20 0,-11.04569 8.95431,-20 20,-20 11.04569,0 20,8.95431 20,20 z"
         transform="matrix(0.08327876,0,0,0.08327876,478.33004,246.42105)" />
      <path
         transform="matrix(0.08327876,0,0,0.08327876,526.79818,246.42105)"
         d="m 200,332.36218 c 0,11.0457 -8.95431,20 -20,20 -11.04569,0 -20,-8.9543 -20,-20 0,-11.04569 8.95431,-20 20,-20 11.04569,0 20,8.95431 20,20 z"
         sodipodi:ry="20"
         sodipodi:rx="20"
         sodipodi:cy="332.36218"
         sodipodi:cx="180"
         id="path3800"
         style="fill:#ffffff;fill-rule:evenodd;stroke:#ffffff;stroke-width:5;stroke-linecap:butt;stroke-linejoin:miter;stroke-miterlimit:4;stroke-opacity:1;stroke-dasharray:none"
         sodipodi:type="arc" />
      <path
         transform="matrix(0.14001964,0,0,0.13473599,509.27306,204.80464)"
         d="m 200,332.36218 c 0,11.0457 -8.95431,20 -20,20 -11.04569,0 -20,-8.9543 -20,-20 0,-11.04569 8.95431,-20 20,-20 11.04569,0 20,8.95431 20,20 z"
         sodipodi:ry="20"
         sodipodi:rx="20"
         sodipodi:cy="332.36218"
         sodipodi:cx="180"
         id="path3911"
         style="fill:#ffffff;fill-rule:evenodd;stroke:#ffffff;stroke-width:5;stroke-linecap:butt;stroke-linejoin:miter;stroke-miterlimit:4;stroke-opacity:1;stroke-dasharray:none"
         sodipodi:type="arc" />
      <path
         sodipodi:type="arc"
         style="fill:#ffffff;fill-rule:evenodd;stroke:#ffffff;stroke-width:5;stroke-linecap:butt;stroke-linejoin:miter;stroke-miterlimit:4;stroke-opacity:1;stroke-dasharray:none"
         id="path3909"
         sodipodi:cx="180"
         sodipodi:cy="332.36218"
         sodipodi:rx="20"
         sodipodi:ry="20"
         d="m 200,332.36218 c 0,11.0457 -8.95431,20 -20,20 -11.04569,0 -20,-8.9543 -20,-20 0,-11.04569 8.95431,-20 20,-20 11.04569,0 20,8.95431 20,20 z"
         transform="matrix(0.14001964,0,0,0.13473599,509.27313,188.38684)" />
      <path
         sodipodi:type="arc"
         style="fill:#ffffff;fill-rule:evenodd;stroke:#ffffff;stroke-width:5.00000525;stroke-linecap:butt;stroke-linejoin:miter;stroke-miterlimit:4;stroke-opacity:1;stroke-dasharray:none"
         id="path3782"
         sodipodi:cx="180"
         sodipodi:cy="332.36218"
         sodipodi:rx="20"
         sodipodi:ry="20"
         d="m 200,332.36218 c 0,11.0457 -8.95431,20 -20,20 -11.04569,0 -20,-8.9543 -20,-20 0,-11.04569 8.95431,-20 20,-20 11.04569,0 20,8.95431 20,20 z"
         transform="matrix(0.14001963,0,0,0.13473597,475.84261,188.38685)" />
      <path
         sodipodi:type="arc"
         style="fill:#ffffff;fill-rule:evenodd;stroke:#ffffff;stroke-width:5;stroke-linecap:butt;stroke-linejoin:miter;stroke-miterlimit:4;stroke-opacity:1;stroke-dasharray:none"
         id="path3913"
         sodipodi:cx="180"
         sodipodi:cy="332.36218"
         sodipodi:rx="20"
         sodipodi:ry="20"
         d="m 200,332.36218 c 0,11.0457 -8.95431,20 -20,20 -11.04569,0 -20,-8.9543 -20,-20 0,-11.04569 8.95431,-20 20,-20 11.04569,0 20,8.95431 20,20 z"
         transform="matrix(0.14001964,0,0,0.13473599,475.8426,221.57939)" />
      <path
         transform="matrix(0.14001964,0,0,0.13473599,492.49838,237.99719)"
         d="m 200,332.36218 c 0,11.0457 -8.95431,20 -20,20 -11.04569,0 -20,-8.9543 -20,-20 0,-11.04569 8.95431,-20 20,-20 11.04569,0 20,8.95431 20,20 z"
         sodipodi:ry="20"
         sodipodi:rx="20"
         sodipodi:cy="332.36218"
         sodipodi:cx="180"
         id="path3068"
         style="fill:#ffffff;fill-rule:evenodd;stroke:#ffffff;stroke-width:5;stroke-linecap:butt;stroke-linejoin:miter;stroke-miterlimit:4;stroke-opacity:1;stroke-dasharray:none"
         sodipodi:type="arc" />
      <path
         transform="matrix(0.14001964,0,0,0.13473599,492.49838,171.8048)"
         d="m 200,332.36218 c 0,11.0457 -8.95431,20 -20,20 -11.04569,0 -20,-8.9543 -20,-20 0,-11.04569 8.95431,-20 20,-20 11.04569,0 20,8.95431 20,20 z"
         sodipodi:ry="20"
         sodipodi:rx="20"
         sodipodi:cy="332.36218"
         sodipodi:cx="180"
         id="path3070"
         style="fill:#ffffff;fill-rule:evenodd;stroke:#ffffff;stroke-width:5;stroke-linecap:butt;stroke-linejoin:miter;stroke-miterlimit:4;stroke-opacity:1;stroke-dasharray:none"
         sodipodi:type="arc" />
      <path
         sodipodi:type="arc"
         style="fill:#ffffff;fill-rule:evenodd;stroke:#ffffff;stroke-width:5;stroke-linecap:butt;stroke-linejoin:miter;stroke-miterlimit:4;stroke-opacity:1;stroke-dasharray:none"
         id="path3072"
         sodipodi:cx="180"
         sodipodi:cy="332.36218"
         sodipodi:rx="20"
         sodipodi:ry="20"
         d="m 200,332.36218 c 0,11.0457 -8.95431,20 -20,20 -11.04569,0 -20,-8.9543 -20,-20 0,-11.04569 8.95431,-20 20,-20 11.04569,0 20,8.95431 20,20 z"
         transform="matrix(0.14001964,0,0,0.13473599,509.27306,221.57939)" />
      <path
         sodipodi:type="arc"
         style="fill:#ffffff;fill-rule:evenodd;stroke:#ffffff;stroke-width:5;stroke-linecap:butt;stroke-linejoin:miter;stroke-miterlimit:4;stroke-opacity:1;stroke-dasharray:none"
         id="path3074"
         sodipodi:cx="180"
         sodipodi:cy="332.36218"
         sodipodi:rx="20"
         sodipodi:ry="20"
         d="m 200,332.36218 c 0,11.0457 -8.95431,20 -20,20 -11.04569,0 -20,-8.9543 -20,-20 0,-11.04569 8.95431,-20 20,-20 11.04569,0 20,8.95431 20,20 z"
         transform="matrix(0.14001964,0,0,0.13473599,475.8426,204.80464)" />
      <path
         transform="matrix(0.14001964,0,0,0.13473599,492.49838,204.80464)"
         d="m 200,332.36218 c 0,11.0457 -8.95431,20 -20,20 -11.04569,0 -20,-8.9543 -20,-20 0,-11.04569 8.95431,-20 20,-20 11.04569,0 20,8.95431 20,20 z"
         sodipodi:ry="20"
         sodipodi:rx="20"
         sodipodi:cy="332.36218"
         sodipodi:cx="180"
         id="path3803"
         style="fill:#ffffff;fill-rule:evenodd;stroke:#ffffff;stroke-width:5;stroke-linecap:butt;stroke-linejoin:miter;stroke-miterlimit:4;stroke-opacity:1;stroke-dasharray:none"
         sodipodi:type="arc" />
      <path
         style="fill:none;stroke:#ffffff;stroke-width:0.83979797;stroke-linecap:butt;stroke-linejoin:miter;stroke-miterlimit:4;stroke-opacity:1;stroke-dasharray:none"
         d="m 493.25521,225.232 24.26083,-9.33108 24.26083,9.33108 9.33109,24.26083 -9.33109,24.26083"
         id="path3927-6"
         inkscape:connector-curvature="0" />
      <path
         style="fill:#ffffff;stroke:#ffffff;stroke-width:0.83979797;stroke-linecap:butt;stroke-linejoin:miter;stroke-miterlimit:4;stroke-opacity:1;stroke-dasharray:none"
         d="m 541.77687,273.75366 -24.26083,9.33109"
         id="path3929-7"
         inkscape:connector-curvature="0" />
      <path
         style="fill:none;stroke:#ffffff;stroke-width:0.83979797;stroke-linecap:butt;stroke-linejoin:miter;stroke-miterlimit:4;stroke-opacity:1;stroke-dasharray:none"
         d="m 517.51604,283.08475 -24.26083,-9.33109 -9.33108,-24.26083 9.33108,-24.26083"
         id="path3931-5"
         inkscape:connector-curvature="0" />
    </g>
  </g>
</svg>
