<?xml version="1.0" encoding="UTF-8" standalone="no"?>
<!-- Created with Inkscape (http://www.inkscape.org/) -->

<svg
   xmlns:dc="http://purl.org/dc/elements/1.1/"
   xmlns:cc="http://creativecommons.org/ns#"
   xmlns:rdf="http://www.w3.org/1999/02/22-rdf-syntax-ns#"
   xmlns:svg="http://www.w3.org/2000/svg"
   xmlns="http://www.w3.org/2000/svg"
   xmlns:sodipodi="http://sodipodi.sourceforge.net/DTD/sodipodi-0.dtd"
   xmlns:inkscape="http://www.inkscape.org/namespaces/inkscape"
   width="630.26672"
   height="190.98013"
   id="svg2"
   version="1.1"
   inkscape:version="0.48.4 r9939"
   sodipodi:docname="TinyDNN-logo&amp;letters-final.svg"
   inkscape:export-filename="/home/albert/Escriptori/tiny/FINAL LOGO/TinyDNN-logo&amp;letters-final.png"
   inkscape:export-xdpi="90"
   inkscape:export-ydpi="90">
  <defs
     id="defs4" />
  <sodipodi:namedview
     id="base"
     pagecolor="#ffffff"
     bordercolor="#666666"
     borderopacity="1.0"
     inkscape:pageopacity="0.0"
     inkscape:pageshadow="2"
     inkscape:zoom="0.7"
     inkscape:cx="404.27058"
     inkscape:cy="146.52394"
     inkscape:document-units="px"
     inkscape:current-layer="g4007"
     showgrid="false"
     showguides="true"
     fit-margin-top="0"
     fit-margin-left="0"
     fit-margin-right="0"
     fit-margin-bottom="0"
     inkscape:guide-bbox="true"
     inkscape:window-width="1024"
     inkscape:window-height="713"
     inkscape:window-x="0"
     inkscape:window-y="27"
     inkscape:window-maximized="1">
    <inkscape:grid
       type="xygrid"
       id="grid2985"
       empspacing="5"
       visible="true"
       enabled="true"
       snapvisiblegridlinesonly="true"
       originx="67.052319px"
       originy="-657.48385px" />
  </sodipodi:namedview>
  <metadata
     id="metadata7">
    <rdf:RDF>
      <cc:Work
         rdf:about="">
        <dc:format>image/svg+xml</dc:format>
        <dc:type
           rdf:resource="http://purl.org/dc/dcmitype/StillImage" />
        <dc:title></dc:title>
      </cc:Work>
    </rdf:RDF>
  </metadata>
  <g
     inkscape:label="Capa 1"
     inkscape:groupmode="layer"
     id="capa1"
     transform="translate(67.052319,-203.8981)">
    <g
       id="g4007">
      <flowRoot
         transform="translate(79.691507,-325.95823)"
         style="font-size:300px;font-style:normal;font-variant:normal;font-weight:normal;font-stretch:normal;line-height:125%;letter-spacing:0px;word-spacing:0px;fill:#000000;fill-opacity:1;stroke:none;font-family:Wingdings;-inkscape-font-specification:Wingdings"
         id="flowRoot3866"
         xml:space="preserve"><flowRegion
           id="flowRegion3868"><rect
             style="font-size:300px;font-style:normal;font-variant:normal;font-weight:normal;font-stretch:normal;font-family:Wingdings;-inkscape-font-specification:Wingdings"
             y="399.10431"
             x="-288.90363"
             height="412.14224"
             width="1264.7111"
             id="rect3870" /></flowRegion><flowPara
           id="flowPara3872"><flowSpan
             id="flowSpan3874"
             style="font-style:normal;font-variant:normal;font-weight:normal;font-stretch:normal;line-height:162.00000048%;letter-spacing:-12.17000008px;fill:#008080;font-family:K1FS;-inkscape-font-specification:K1FS">tiny  </flowSpan><flowSpan
             style="font-style:normal;font-variant:normal;font-weight:normal;font-stretch:normal;line-height:162.00000048%;letter-spacing:-12.17000008px;fill:#000000;font-family:K1FS;-inkscape-font-specification:K1FS"
             id="flowSpan3057">dn</flowSpan><flowSpan
             id="flowSpan3039"
             style="font-style:normal;font-variant:normal;font-weight:normal;font-stretch:normal;line-height:162.00000048%;letter-spacing:-12.17000008px;fill:#000000;font-family:K1FS;-inkscape-font-specification:K1FS">n   </flowSpan></flowPara></flowRoot>      <g
         id="g3179">
        <path
           inkscape:connector-curvature="0"
           id="path4697"
           d="m 170.69993,311.80453 45,0.71428"
           style="fill:none;stroke:#808080;stroke-width:14;stroke-linecap:butt;stroke-linejoin:miter;stroke-miterlimit:0;stroke-opacity:1;stroke-dasharray:none" />
        <flowRoot
           transform="translate(-10.364819,71.302661)"
           style="font-size:40px;font-style:normal;font-weight:normal;line-height:125%;letter-spacing:0px;word-spacing:0px;fill:#000000;fill-opacity:1;stroke:none;font-family:Sans"
           id="flowRoot3524"
           xml:space="preserve"><flowRegion
             id="flowRegion3526"><rect
               y="85.108833"
               x="-68.690369"
               height="262.63965"
               width="943.48242"
               id="rect3528" /></flowRegion><flowPara
             style="font-size:200px;font-style:normal;font-variant:normal;font-weight:normal;font-stretch:normal;letter-spacing:-6.60000134px;font-family:Gidolinya;-inkscape-font-specification:Gidolinya"
             id="flowPara3530"><flowSpan
   id="flowSpan3597"
   style="font-style:normal;font-variant:normal;font-weight:normal;font-stretch:normal;letter-spacing:-6.60000134px;fill:#008080;font-family:Gidolinya;-inkscape-font-specification:Gidolinya">tiny </flowSpan>dnn</flowPara></flowRoot>        <g
           id="g4198"
           transform="matrix(0.07911353,0,0,0.07911353,491.93783,222.88626)">
          <path
             sodipodi:type="arc"
             style="fill:#008080;fill-rule:evenodd;stroke:none"
             id="path3043-3"
             sodipodi:cx="498.57141"
             sodipodi:cy="549.56696"
             sodipodi:rx="581.42853"
             sodipodi:ry="608.57141"
             d="m 1079.9999,549.56696 c 0,336.10471 -260.31438,608.57144 -581.42849,608.57144 -321.11411,0 -581.428527,-272.46673 -581.428527,-608.57144 0,-336.10471 260.314417,-608.571416 581.428527,-608.571416 321.11411,0 581.42849,272.466706 581.42849,608.571416 z"
             transform="matrix(0.98894356,0,0,0.94483571,-167.11887,-184.26203)" />
          <g
             id="g4003">
            <path
               sodipodi:nodetypes="cc"
               inkscape:connector-curvature="0"
               id="path3044"
               d="M 535.33275,555.89637 C 545.91688,667.73421 471.5102,740.38986 324.80298,766.42604"
               style="fill:none;stroke:#ffffff;stroke-width:32.10599899;stroke-linecap:butt;stroke-linejoin:miter;stroke-miterlimit:4;stroke-opacity:1;stroke-dasharray:none" />
            <path
               style="fill:none;stroke:#ffffff;stroke-width:32.10599899;stroke-linecap:butt;stroke-linejoin:miter;stroke-miterlimit:4;stroke-opacity:1;stroke-dasharray:none"
               d="m 116.6337,555.89637 c -10.58412,111.83784 63.82254,184.49349 210.52977,210.52967"
               id="path3042"
               inkscape:connector-curvature="0"
               sodipodi:nodetypes="cc" />
            <path
               style="fill:none;stroke:#ffffff;stroke-width:32.10599899;stroke-linecap:butt;stroke-linejoin:miter;stroke-miterlimit:4;stroke-opacity:1;stroke-dasharray:none"
               d="M 535.438,124.73131 C 546.02214,12.893477 471.61547,-59.762188 324.90825,-85.798359"
               id="path3040"
               inkscape:connector-curvature="0"
               sodipodi:nodetypes="cc" />
            <path
               inkscape:connector-curvature="0"
               id="path3872"
               d="M 748.223,339.15557 537.69324,128.62581"
               style="fill:#ffffff;stroke:#ffffff;stroke-width:9.47383976;stroke-linecap:butt;stroke-linejoin:miter;stroke-miterlimit:4;stroke-opacity:1;stroke-dasharray:none" />
            <path
               inkscape:connector-curvature="0"
               id="path3870"
               d="M -93.896065,339.15557 116.6337,128.62581"
               style="fill:none;stroke:#ffffff;stroke-width:9.47383976;stroke-linecap:butt;stroke-linejoin:miter;stroke-miterlimit:4;stroke-opacity:1;stroke-dasharray:none" />
            <path
               inkscape:connector-curvature="0"
               id="path3812"
               d="m 748.223,339.15559 -210.52976,0"
               style="fill:#ffffff;stroke:#ffffff;stroke-width:9.47383976;stroke-linecap:butt;stroke-linejoin:miter;stroke-miterlimit:4;stroke-opacity:1;stroke-dasharray:none" />
            <path
               inkscape:connector-curvature="0"
               id="path3810"
               d="m 537.69324,339.15559 -210.52977,0"
               style="fill:none;stroke:#ffffff;stroke-width:32.10599899;stroke-linecap:butt;stroke-linejoin:miter;stroke-miterlimit:4;stroke-opacity:1;stroke-dasharray:none" />
            <path
               inkscape:connector-curvature="0"
               id="path3807"
               d="m 327.16347,339.15559 -210.52977,0"
               style="fill:none;stroke:#ffffff;stroke-width:32.10599899;stroke-linecap:butt;stroke-linejoin:miter;stroke-miterlimit:4;stroke-opacity:1;stroke-dasharray:none" />
            <path
               inkscape:connector-curvature="0"
               id="path3805"
               d="m -93.896065,339.15559 210.529765,0"
               style="fill:#ffffff;stroke:#ffffff;stroke-width:9.47383976;stroke-linecap:butt;stroke-linejoin:miter;stroke-miterlimit:4;stroke-opacity:1;stroke-dasharray:none" />
            <path
               sodipodi:nodetypes="cc"
               inkscape:connector-curvature="0"
               id="path3031"
               d="M 116.6337,124.73131 C 106.04958,12.893502 180.45624,-59.762163 327.16347,-85.798333"
               style="fill:none;stroke:#ffffff;stroke-width:32.10599899;stroke-linecap:butt;stroke-linejoin:miter;stroke-miterlimit:4;stroke-opacity:1;stroke-dasharray:none" />
            <path
               inkscape:connector-curvature="0"
               id="path3797"
               d="M -93.896065,339.15559 116.6337,549.68536"
               style="fill:#999999;stroke:#ffffff;stroke-width:9.47383976;stroke-linecap:butt;stroke-linejoin:miter;stroke-miterlimit:4;stroke-opacity:1;stroke-dasharray:none" />
            <path
               inkscape:connector-curvature="0"
               id="path3801"
               d="M 748.223,339.15559 537.69324,549.68536"
               style="fill:#ffffff;stroke:#ffffff;stroke-width:9.47383976;stroke-linecap:butt;stroke-linejoin:miter;stroke-miterlimit:4;stroke-opacity:1;stroke-dasharray:none" />
            <path
               inkscape:connector-curvature="0"
               id="path3813"
               d="M 327.16347,339.15566 116.6337,128.62589"
               style="fill:none;stroke:#ffffff;stroke-width:9.47383976;stroke-linecap:butt;stroke-linejoin:miter;stroke-miterlimit:4;stroke-opacity:1;stroke-dasharray:none" />
            <path
               inkscape:connector-curvature="0"
               id="path3819"
               d="M 327.16347,339.15566 537.69324,128.62589"
               style="fill:#ffffff;stroke:#ffffff;stroke-width:9.47383976;stroke-linecap:butt;stroke-linejoin:miter;stroke-miterlimit:4;stroke-opacity:1;stroke-dasharray:none" />
            <path
               inkscape:connector-curvature="0"
               id="path3039"
               d="m 327.16347,339.15566 0,210.52976"
               style="fill:#ffffff;stroke:#ffffff;stroke-width:9.47383976;stroke-linecap:butt;stroke-linejoin:miter;stroke-miterlimit:4;stroke-opacity:1;stroke-dasharray:none" />
            <path
               inkscape:connector-curvature="0"
               id="path3862"
               d="m 327.16347,128.62589 0,210.52977"
               style="fill:#ffffff;stroke:#ffffff;stroke-width:9.47383976;stroke-linecap:butt;stroke-linejoin:miter;stroke-miterlimit:4;stroke-opacity:1;stroke-dasharray:none" />
            <path
               inkscape:connector-curvature="0"
               id="path3822"
               d="M 535.9435,130.37564 642.15428,24.16485"
               style="fill:#ffffff;stroke:#ffffff;stroke-width:10.61509895;stroke-linecap:butt;stroke-linejoin:miter;stroke-miterlimit:4;stroke-opacity:1;stroke-dasharray:none" />
            <path
               inkscape:connector-curvature="0"
               id="path3817"
               d="M 118.6975,130.68969 23.653158,35.645346"
               style="fill:#000000;stroke:#ffffff;stroke-width:10.61509895;stroke-linecap:butt;stroke-linejoin:miter;stroke-miterlimit:4;stroke-opacity:1;stroke-dasharray:none" />
            <path
               inkscape:connector-curvature="0"
               id="path3815"
               d="M 116.6337,549.68542 327.16347,339.15566"
               style="fill:none;stroke:#ffffff;stroke-width:9.47383976;stroke-linecap:butt;stroke-linejoin:miter;stroke-miterlimit:4;stroke-opacity:1;stroke-dasharray:none" />
            <path
               inkscape:connector-curvature="0"
               id="path3811"
               d="M 535.89863,547.89081 640.51421,652.50639"
               style="fill:none;stroke:#ffffff;stroke-width:10.61509895;stroke-linecap:butt;stroke-linejoin:miter;stroke-miterlimit:4;stroke-opacity:1;stroke-dasharray:none" />
            <path
               inkscape:connector-curvature="0"
               id="path3809"
               d="M 327.16347,339.15566 537.69324,549.68542"
               style="fill:#ffffff;stroke:#ffffff;stroke-width:9.47383976;stroke-linecap:butt;stroke-linejoin:miter;stroke-miterlimit:4;stroke-opacity:1;stroke-dasharray:none" />
            <path
               inkscape:connector-curvature="0"
               id="path3926"
               d="m 327.16347,-81.903877 0,210.529767"
               style="fill:none;stroke:#ffffff;stroke-width:9.47383976;stroke-linecap:butt;stroke-linejoin:miter;stroke-miterlimit:4;stroke-opacity:1;stroke-dasharray:none" />
            <path
               inkscape:connector-curvature="0"
               id="path3905"
               d="m 537.69324,128.62589 0,210.52977 0,210.52976"
               style="fill:#ffffff;stroke:#ffffff;stroke-width:32.10599899;stroke-linecap:butt;stroke-linejoin:miter;stroke-miterlimit:4;stroke-opacity:1;stroke-dasharray:none" />
            <path
               inkscape:connector-curvature="0"
               id="path3901"
               d="m 116.6337,128.62589 0,210.52977 0,210.52976"
               style="fill:none;stroke:#ffffff;stroke-width:32.10599899;stroke-linecap:butt;stroke-linejoin:miter;stroke-miterlimit:4;stroke-opacity:1;stroke-dasharray:none" />
            <path
               inkscape:connector-curvature="0"
               id="path3880"
               d="m 116.6337,549.68542 210.52977,0 210.52977,0"
               style="fill:none;stroke:#ffffff;stroke-width:9.47383976;stroke-linecap:butt;stroke-linejoin:miter;stroke-miterlimit:4;stroke-opacity:1;stroke-dasharray:none" />
            <path
               inkscape:connector-curvature="0"
               id="path3878"
               d="m 114.50703,128.62589 210.52977,0 210.52976,0"
               style="fill:none;stroke:#ffffff;stroke-width:9.47383976;stroke-linecap:butt;stroke-linejoin:miter;stroke-miterlimit:4;stroke-opacity:1;stroke-dasharray:none" />
            <path
               inkscape:connector-curvature="0"
               id="path3868"
               d="M 8.8473017,654.10195 118.33892,547.9802"
               style="fill:none;stroke:#ffffff;stroke-width:10.61509895;stroke-linecap:butt;stroke-linejoin:miter;stroke-miterlimit:4;stroke-opacity:1;stroke-dasharray:none" />
            <path
               inkscape:connector-curvature="0"
               id="path3849"
               d="m 327.16347,549.68542 0,210.52977"
               style="fill:none;stroke:#ffffff;stroke-width:9.47383976;stroke-linecap:butt;stroke-linejoin:miter;stroke-miterlimit:4;stroke-opacity:1;stroke-dasharray:none" />
            <path
               transform="matrix(1.0526488,0,0,1.0526488,137.68667,-9.2011782)"
               d="m 200,332.36218 c 0,11.0457 -8.95431,20 -20,20 -11.04569,0 -20,-8.9543 -20,-20 0,-11.04569 8.95431,-20 20,-20 11.04569,0 20,8.95431 20,20 z"
               sodipodi:ry="20"
               sodipodi:rx="20"
               sodipodi:cy="332.36218"
               sodipodi:cx="180"
               id="path2987"
               style="fill:#e6e6e6;fill-rule:evenodd;stroke:#ffffff;stroke-width:5;stroke-linecap:butt;stroke-linejoin:miter;stroke-miterlimit:4;stroke-opacity:1;stroke-dasharray:none"
               sodipodi:type="arc" />
            <path
               sodipodi:type="arc"
               style="fill:#ffffff;fill-rule:evenodd;stroke:#ffffff;stroke-width:5;stroke-linecap:butt;stroke-linejoin:miter;stroke-miterlimit:4;stroke-opacity:1;stroke-dasharray:none"
               id="path3757"
               sodipodi:cx="180"
               sodipodi:cy="332.36218"
               sodipodi:rx="20"
               sodipodi:ry="20"
               d="m 200,332.36218 c 0,11.0457 -8.95431,20 -20,20 -11.04569,0 -20,-8.9543 -20,-20 0,-11.04569 8.95431,-20 20,-20 11.04569,0 20,8.95431 20,20 z"
               transform="matrix(1.0526488,0,0,1.0526488,348.21644,-9.2011782)" />
            <path
               sodipodi:type="arc"
               style="fill:#e6e6e6;fill-rule:evenodd;stroke:#ffffff;stroke-width:5;stroke-linecap:butt;stroke-linejoin:miter;stroke-miterlimit:4;stroke-opacity:1;stroke-dasharray:none"
               id="path3759"
               sodipodi:cx="180"
               sodipodi:cy="332.36218"
               sodipodi:rx="20"
               sodipodi:ry="20"
               d="m 200,332.36218 c 0,11.0457 -8.95431,20 -20,20 -11.04569,0 -20,-8.9543 -20,-20 0,-11.04569 8.95431,-20 20,-20 11.04569,0 20,8.95431 20,20 z"
               transform="matrix(1.0526488,0,0,1.0526488,-74.346724,-9.2011782)" />
            <path
               transform="matrix(1.0526488,0,0,1.0526488,-281.86907,-9.2011782)"
               d="m 200,332.36218 c 0,11.0457 -8.95431,20 -20,20 -11.04569,0 -20,-8.9543 -20,-20 0,-11.04569 8.95431,-20 20,-20 11.04569,0 20,8.95431 20,20 z"
               sodipodi:ry="20"
               sodipodi:rx="20"
               sodipodi:cy="332.36218"
               sodipodi:cx="180"
               id="path3761"
               style="fill:#ffffff;fill-rule:evenodd;stroke:#ffffff;stroke-width:5;stroke-linecap:butt;stroke-linejoin:miter;stroke-miterlimit:4;stroke-opacity:1;stroke-dasharray:none"
               sodipodi:type="arc" />
            <path
               transform="matrix(1.0501635,0,0,1.0527952,560.64471,-9.2495701)"
               d="m 200,332.36218 c 0,11.0457 -8.95431,20 -20,20 -11.04569,0 -20,-8.9543 -20,-20 0,-11.04569 8.95431,-20 20,-20 11.04569,0 20,8.95431 20,20 z"
               sodipodi:ry="20"
               sodipodi:rx="20"
               sodipodi:cy="332.36218"
               sodipodi:cx="180"
               id="path3763"
               style="fill:#ffffff;fill-rule:evenodd;stroke:#ffffff;stroke-width:5;stroke-linecap:butt;stroke-linejoin:miter;stroke-miterlimit:4;stroke-opacity:1;stroke-dasharray:none"
               sodipodi:type="arc" />
            <path
               sodipodi:type="arc"
               style="fill:#ffffff;fill-rule:evenodd;stroke:#ffffff;stroke-width:5;stroke-linecap:butt;stroke-linejoin:miter;stroke-miterlimit:4;stroke-opacity:1;stroke-dasharray:none"
               id="path3778"
               sodipodi:cx="180"
               sodipodi:cy="332.36218"
               sodipodi:rx="20"
               sodipodi:ry="20"
               d="m 200,332.36218 c 0,11.0457 -8.95431,20 -20,20 -11.04569,0 -20,-8.9543 -20,-20 0,-11.04569 8.95431,-20 20,-20 11.04569,0 20,8.95431 20,20 z"
               transform="matrix(1.0526488,0,0,1.0526488,139.19046,-224.24229)" />
            <path
               transform="matrix(1.0526488,0,0,1.0526488,351.22401,-222.73851)"
               d="m 200,332.36218 c 0,11.0457 -8.95431,20 -20,20 -11.04569,0 -20,-8.9543 -20,-20 0,-11.04569 8.95431,-20 20,-20 11.04569,0 20,8.95431 20,20 z"
               sodipodi:ry="20"
               sodipodi:rx="20"
               sodipodi:cy="332.36218"
               sodipodi:cx="180"
               id="path3780"
               style="fill:#ffffff;fill-rule:evenodd;stroke:#ffffff;stroke-width:5;stroke-linecap:butt;stroke-linejoin:miter;stroke-miterlimit:4;stroke-opacity:1;stroke-dasharray:none"
               sodipodi:type="arc" />
            <path
               transform="matrix(1.0526488,0,0,1.0526488,137.68667,201.32858)"
               d="m 200,332.36218 c 0,11.0457 -8.95431,20 -20,20 -11.04569,0 -20,-8.9543 -20,-20 0,-11.04569 8.95431,-20 20,-20 11.04569,0 20,8.95431 20,20 z"
               sodipodi:ry="20"
               sodipodi:rx="20"
               sodipodi:cy="332.36218"
               sodipodi:cx="180"
               id="path3784"
               style="fill:#ffffff;fill-rule:evenodd;stroke:#ffffff;stroke-width:5;stroke-linecap:butt;stroke-linejoin:miter;stroke-miterlimit:4;stroke-opacity:1;stroke-dasharray:none"
               sodipodi:type="arc" />
            <path
               sodipodi:type="arc"
               style="fill:#ffffff;fill-rule:evenodd;stroke:#ffffff;stroke-width:5;stroke-linecap:butt;stroke-linejoin:miter;stroke-miterlimit:4;stroke-opacity:1;stroke-dasharray:none"
               id="path3786"
               sodipodi:cx="180"
               sodipodi:cy="332.36218"
               sodipodi:rx="20"
               sodipodi:ry="20"
               d="m 200,332.36218 c 0,11.0457 -8.95431,20 -20,20 -11.04569,0 -20,-8.9543 -20,-20 0,-11.04569 8.95431,-20 20,-20 11.04569,0 20,8.95431 20,20 z"
               transform="matrix(1.0526488,0,0,1.0526488,348.216,201.32858)" />
            <path
               sodipodi:type="arc"
               style="fill:#e6e6e6;fill-rule:evenodd;stroke:#808080;stroke-width:5;stroke-linecap:butt;stroke-linejoin:miter;stroke-miterlimit:4;stroke-opacity:1;stroke-dasharray:none"
               id="path3788"
               sodipodi:cx="180"
               sodipodi:cy="332.36218"
               sodipodi:rx="20"
               sodipodi:ry="20"
               d="m 200,332.36218 c 0,11.0457 -8.95431,20 -20,20 -11.04569,0 -20,-8.9543 -20,-20 0,-11.04569 8.95431,-20 20,-20 11.04569,0 20,8.95431 20,20 z"
               transform="matrix(1.0526488,0,0,1.0526488,-74.346875,201.32858)" />
            <path
               sodipodi:type="arc"
               style="fill:#e6e6e6;fill-rule:evenodd;stroke:#808080;stroke-width:5;stroke-linecap:butt;stroke-linejoin:miter;stroke-miterlimit:4;stroke-opacity:1;stroke-dasharray:none"
               id="path3790"
               sodipodi:cx="180"
               sodipodi:cy="332.36218"
               sodipodi:rx="20"
               sodipodi:ry="20"
               d="m 200,332.36218 c 0,11.0457 -8.95431,20 -20,20 -11.04569,0 -20,-8.9543 -20,-20 0,-11.04569 8.95431,-20 20,-20 11.04569,0 20,8.95431 20,20 z"
               transform="matrix(1.0526488,0,0,1.0526488,136.18289,410.35457)" />
            <path
               transform="matrix(1.0526488,0,0,1.0526488,136.18305,-430.26071)"
               d="m 200,332.36218 c 0,11.0457 -8.95431,20 -20,20 -11.04569,0 -20,-8.9543 -20,-20 0,-11.04569 8.95431,-20 20,-20 11.04569,0 20,8.95431 20,20 z"
               sodipodi:ry="20"
               sodipodi:rx="20"
               sodipodi:cy="332.36218"
               sodipodi:cx="180"
               id="path3792"
               style="fill:#e6e6e6;fill-rule:evenodd;stroke:#ffffff;stroke-width:5;stroke-linecap:butt;stroke-linejoin:miter;stroke-miterlimit:4;stroke-opacity:1;stroke-dasharray:none"
               sodipodi:type="arc" />
            <path
               sodipodi:type="arc"
               style="fill:#ffffff;fill-rule:evenodd;stroke:#ffffff;stroke-width:5;stroke-linecap:butt;stroke-linejoin:miter;stroke-miterlimit:4;stroke-opacity:1;stroke-dasharray:none"
               id="path3794"
               sodipodi:cx="180"
               sodipodi:cy="332.36218"
               sodipodi:rx="20"
               sodipodi:ry="20"
               d="m 200,332.36218 c 0,11.0457 -8.95431,20 -20,20 -11.04569,0 -20,-8.9543 -20,-20 0,-11.04569 8.95431,-20 20,-20 11.04569,0 20,8.95431 20,20 z"
               transform="matrix(1.0526488,0,0,1.0526488,-172.0028,-315.52135)" />
            <path
               transform="matrix(1.0526488,0,0,1.0526488,440.63698,-315.52156)"
               d="m 200,332.36218 c 0,11.0457 -8.95431,20 -20,20 -11.04569,0 -20,-8.9543 -20,-20 0,-11.04569 8.95431,-20 20,-20 11.04569,0 20,8.95431 20,20 z"
               sodipodi:ry="20"
               sodipodi:rx="20"
               sodipodi:cy="332.36218"
               sodipodi:cx="180"
               id="path3796"
               style="fill:#ffffff;fill-rule:evenodd;stroke:#ffffff;stroke-width:5;stroke-linecap:butt;stroke-linejoin:miter;stroke-miterlimit:4;stroke-opacity:1;stroke-dasharray:none"
               sodipodi:type="arc" />
            <path
               transform="matrix(1.0526488,0,0,1.0526488,-172.00337,297.48129)"
               d="m 200,332.36218 c 0,11.0457 -8.95431,20 -20,20 -11.04569,0 -20,-8.9543 -20,-20 0,-11.04569 8.95431,-20 20,-20 11.04569,0 20,8.95431 20,20 z"
               sodipodi:ry="20"
               sodipodi:rx="20"
               sodipodi:cy="332.36218"
               sodipodi:cx="180"
               id="path3798"
               style="fill:#ffffff;fill-rule:evenodd;stroke:#ffffff;stroke-width:5;stroke-linecap:butt;stroke-linejoin:miter;stroke-miterlimit:4;stroke-opacity:1;stroke-dasharray:none"
               sodipodi:type="arc" />
            <path
               sodipodi:type="arc"
               style="fill:#ffffff;fill-rule:evenodd;stroke:#ffffff;stroke-width:5;stroke-linecap:butt;stroke-linejoin:miter;stroke-miterlimit:4;stroke-opacity:1;stroke-dasharray:none"
               id="path3800"
               sodipodi:cx="180"
               sodipodi:cy="332.36218"
               sodipodi:rx="20"
               sodipodi:ry="20"
               d="m 200,332.36218 c 0,11.0457 -8.95431,20 -20,20 -11.04569,0 -20,-8.9543 -20,-20 0,-11.04569 8.95431,-20 20,-20 11.04569,0 20,8.95431 20,20 z"
               transform="matrix(1.0526488,0,0,1.0526488,440.63698,297.48129)" />
            <path
               sodipodi:type="arc"
               style="fill:#ffffff;fill-rule:evenodd;stroke:#ffffff;stroke-width:5;stroke-linecap:butt;stroke-linejoin:miter;stroke-miterlimit:4;stroke-opacity:1;stroke-dasharray:none"
               id="path3911"
               sodipodi:cx="180"
               sodipodi:cy="332.36218"
               sodipodi:rx="20"
               sodipodi:ry="20"
               d="m 200,332.36218 c 0,11.0457 -8.95431,20 -20,20 -11.04569,0 -20,-8.9543 -20,-20 0,-11.04569 8.95431,-20 20,-20 11.04569,0 20,8.95431 20,20 z"
               transform="matrix(1.7698571,0,0,1.7030714,219.11834,-228.55286)" />
            <path
               transform="matrix(1.7698571,0,0,1.7030714,219.11934,-436.07486)"
               d="m 200,332.36218 c 0,11.0457 -8.95431,20 -20,20 -11.04569,0 -20,-8.9543 -20,-20 0,-11.04569 8.95431,-20 20,-20 11.04569,0 20,8.95431 20,20 z"
               sodipodi:ry="20"
               sodipodi:rx="20"
               sodipodi:cy="332.36218"
               sodipodi:cx="180"
               id="path3909"
               style="fill:#ffffff;fill-rule:evenodd;stroke:#ffffff;stroke-width:5;stroke-linecap:butt;stroke-linejoin:miter;stroke-miterlimit:4;stroke-opacity:1;stroke-dasharray:none"
               sodipodi:type="arc" />
            <path
               transform="matrix(1.7698569,0,0,1.7030711,-203.44462,-436.07476)"
               d="m 200,332.36218 c 0,11.0457 -8.95431,20 -20,20 -11.04569,0 -20,-8.9543 -20,-20 0,-11.04569 8.95431,-20 20,-20 11.04569,0 20,8.95431 20,20 z"
               sodipodi:ry="20"
               sodipodi:rx="20"
               sodipodi:cy="332.36218"
               sodipodi:cx="180"
               id="path3782"
               style="fill:#ffffff;fill-rule:evenodd;stroke:#ffffff;stroke-width:5.00000525;stroke-linecap:butt;stroke-linejoin:miter;stroke-miterlimit:4;stroke-opacity:1;stroke-dasharray:none"
               sodipodi:type="arc" />
            <path
               transform="matrix(1.7698571,0,0,1.7030714,-203.44466,-16.518864)"
               d="m 200,332.36218 c 0,11.0457 -8.95431,20 -20,20 -11.04569,0 -20,-8.9543 -20,-20 0,-11.04569 8.95431,-20 20,-20 11.04569,0 20,8.95431 20,20 z"
               sodipodi:ry="20"
               sodipodi:rx="20"
               sodipodi:cy="332.36218"
               sodipodi:cx="180"
               id="path3913"
               style="fill:#ffffff;fill-rule:evenodd;stroke:#ffffff;stroke-width:5;stroke-linecap:butt;stroke-linejoin:miter;stroke-miterlimit:4;stroke-opacity:1;stroke-dasharray:none"
               sodipodi:type="arc" />
            <path
               sodipodi:type="arc"
               style="fill:#ffffff;fill-rule:evenodd;stroke:#ffffff;stroke-width:5;stroke-linecap:butt;stroke-linejoin:miter;stroke-miterlimit:4;stroke-opacity:1;stroke-dasharray:none"
               id="path3068"
               sodipodi:cx="180"
               sodipodi:cy="332.36218"
               sodipodi:rx="20"
               sodipodi:ry="20"
               d="m 200,332.36218 c 0,11.0457 -8.95431,20 -20,20 -11.04569,0 -20,-8.9543 -20,-20 0,-11.04569 8.95431,-20 20,-20 11.04569,0 20,8.95431 20,20 z"
               transform="matrix(1.7698571,0,0,1.7030714,7.0853419,191.00314)" />
            <path
               sodipodi:type="arc"
               style="fill:#ffffff;fill-rule:evenodd;stroke:#ffffff;stroke-width:5;stroke-linecap:butt;stroke-linejoin:miter;stroke-miterlimit:4;stroke-opacity:1;stroke-dasharray:none"
               id="path3070"
               sodipodi:cx="180"
               sodipodi:cy="332.36218"
               sodipodi:rx="20"
               sodipodi:ry="20"
               d="m 200,332.36218 c 0,11.0457 -8.95431,20 -20,20 -11.04569,0 -20,-8.9543 -20,-20 0,-11.04569 8.95431,-20 20,-20 11.04569,0 20,8.95431 20,20 z"
               transform="matrix(1.7698571,0,0,1.7030714,7.0853419,-645.67286)" />
            <path
               transform="matrix(1.7698571,0,0,1.7030714,219.11834,-16.518864)"
               d="m 200,332.36218 c 0,11.0457 -8.95431,20 -20,20 -11.04569,0 -20,-8.9543 -20,-20 0,-11.04569 8.95431,-20 20,-20 11.04569,0 20,8.95431 20,20 z"
               sodipodi:ry="20"
               sodipodi:rx="20"
               sodipodi:cy="332.36218"
               sodipodi:cx="180"
               id="path3072"
               style="fill:#ffffff;fill-rule:evenodd;stroke:#ffffff;stroke-width:5;stroke-linecap:butt;stroke-linejoin:miter;stroke-miterlimit:4;stroke-opacity:1;stroke-dasharray:none"
               sodipodi:type="arc" />
            <path
               transform="matrix(1.7698571,0,0,1.7030714,-203.44466,-228.55286)"
               d="m 200,332.36218 c 0,11.0457 -8.95431,20 -20,20 -11.04569,0 -20,-8.9543 -20,-20 0,-11.04569 8.95431,-20 20,-20 11.04569,0 20,8.95431 20,20 z"
               sodipodi:ry="20"
               sodipodi:rx="20"
               sodipodi:cy="332.36218"
               sodipodi:cx="180"
               id="path3074"
               style="fill:#ffffff;fill-rule:evenodd;stroke:#ffffff;stroke-width:5;stroke-linecap:butt;stroke-linejoin:miter;stroke-miterlimit:4;stroke-opacity:1;stroke-dasharray:none"
               sodipodi:type="arc" />
            <path
               sodipodi:type="arc"
               style="fill:#ffffff;fill-rule:evenodd;stroke:#ffffff;stroke-width:5;stroke-linecap:butt;stroke-linejoin:miter;stroke-miterlimit:4;stroke-opacity:1;stroke-dasharray:none"
               id="path3803"
               sodipodi:cx="180"
               sodipodi:cy="332.36218"
               sodipodi:rx="20"
               sodipodi:ry="20"
               d="m 200,332.36218 c 0,11.0457 -8.95431,20 -20,20 -11.04569,0 -20,-8.9543 -20,-20 0,-11.04569 8.95431,-20 20,-20 11.04569,0 20,8.95431 20,20 z"
               transform="matrix(1.7698571,0,0,1.7030714,7.0853419,-228.55286)" />
            <path
               inkscape:connector-curvature="0"
               id="path3927-6"
               d="M 16.651814,29.650359 323.31022,-88.295181 629.96862,29.650359 747.91416,336.30876 629.96862,642.96717"
               style="fill:none;stroke:#ffffff;stroke-width:10.61509895;stroke-linecap:butt;stroke-linejoin:miter;stroke-miterlimit:4;stroke-opacity:1;stroke-dasharray:none" />
            <path
               inkscape:connector-curvature="0"
               id="path3929-7"
               d="M 629.96862,642.96717 323.31022,760.91271"
               style="fill:#ffffff;stroke:#ffffff;stroke-width:10.61509895;stroke-linecap:butt;stroke-linejoin:miter;stroke-miterlimit:4;stroke-opacity:1;stroke-dasharray:none" />
            <path
               inkscape:connector-curvature="0"
               id="path3931-5"
               d="M 323.31022,760.91271 16.651814,642.96717 -101.29373,336.30876 16.651814,29.650359"
               style="fill:none;stroke:#ffffff;stroke-width:10.61509895;stroke-linecap:butt;stroke-linejoin:miter;stroke-miterlimit:4;stroke-opacity:1;stroke-dasharray:none" />
          </g>
        </g>
      </g>
    </g>
  </g>
</svg>
