<?xml version="1.0" encoding="UTF-8" standalone="no"?>
<!-- Created with Inkscape (http://www.inkscape.org/) -->

<svg
   xmlns:dc="http://purl.org/dc/elements/1.1/"
   xmlns:cc="http://creativecommons.org/ns#"
   xmlns:rdf="http://www.w3.org/1999/02/22-rdf-syntax-ns#"
   xmlns:svg="http://www.w3.org/2000/svg"
   xmlns="http://www.w3.org/2000/svg"
   xmlns:sodipodi="http://sodipodi.sourceforge.net/DTD/sodipodi-0.dtd"
   xmlns:inkscape="http://www.inkscape.org/namespaces/inkscape"
   width="1150"
   height="1150"
   id="svg2"
   version="1.1"
   inkscape:version="0.48.4 r9939"
   sodipodi:docname="TinyDNN-logo-final.svg"
   inkscape:export-filename="/home/albert/Escriptori/tiny/FINAL LOGO/TinyDNN-logo-final.png"
   inkscape:export-xdpi="90"
   inkscape:export-ydpi="90">
  <defs
     id="defs4" />
  <sodipodi:namedview
     id="base"
     pagecolor="#ffffff"
     bordercolor="#666666"
     borderopacity="1.0"
     inkscape:pageopacity="0.0"
     inkscape:pageshadow="2"
     inkscape:zoom="0.35000001"
     inkscape:cx="561.9195"
     inkscape:cy="491.85033"
     inkscape:document-units="px"
     inkscape:current-layer="capa1"
     showgrid="false"
     showguides="true"
     fit-margin-top="0"
     fit-margin-left="0"
     fit-margin-right="0"
     fit-margin-bottom="0"
     inkscape:guide-bbox="true"
     inkscape:window-width="1024"
     inkscape:window-height="713"
     inkscape:window-x="0"
     inkscape:window-y="27"
     inkscape:window-maximized="1">
    <inkscape:grid
       type="xygrid"
       id="grid2985"
       empspacing="5"
       visible="true"
       enabled="true"
       snapvisiblegridlinesonly="true"
       originx="249.05988px"
       originy="-142.3736px" />
  </sodipodi:namedview>
  <metadata
     id="metadata7">
    <rdf:RDF>
      <cc:Work
         rdf:about="">
        <dc:format>image/svg+xml</dc:format>
        <dc:type
           rdf:resource="http://purl.org/dc/dcmitype/StillImage" />
        <dc:title></dc:title>
      </cc:Work>
    </rdf:RDF>
  </metadata>
  <g
     inkscape:label="Capa 1"
     inkscape:groupmode="layer"
     id="capa1"
     transform="translate(249.05988,240.01155)">
    <g
       id="g4400">
      <path
         transform="matrix(0.98894356,0,0,0.94483571,-167.11887,-184.26203)"
         d="m 1079.9999,549.56696 a 581.42853,608.57141 0 1 1 -1162.857017,0 581.42853,608.57141 0 1 1 1162.857017,0 z"
         sodipodi:ry="608.57141"
         sodipodi:rx="581.42853"
         sodipodi:cy="549.56696"
         sodipodi:cx="498.57141"
         id="path3043"
         style="fill:#000000;fill-rule:evenodd;stroke:none"
         sodipodi:type="arc" />
      <g
         id="g4003">
        <path
           style="fill:none;stroke:#ffffff;stroke-width:32.10599899;stroke-linecap:butt;stroke-linejoin:miter;stroke-miterlimit:4;stroke-opacity:1;stroke-dasharray:none"
           d="M 535.33275,555.89637 C 545.91688,667.73421 471.5102,740.38986 324.80298,766.42604"
           id="path3044"
           inkscape:connector-curvature="0"
           sodipodi:nodetypes="cc" />
        <path
           sodipodi:nodetypes="cc"
           inkscape:connector-curvature="0"
           id="path3042"
           d="m 116.6337,555.89637 c -10.58412,111.83784 63.82254,184.49349 210.52977,210.52967"
           style="fill:none;stroke:#ffffff;stroke-width:32.10599899;stroke-linecap:butt;stroke-linejoin:miter;stroke-miterlimit:4;stroke-opacity:1;stroke-dasharray:none" />
        <path
           sodipodi:nodetypes="cc"
           inkscape:connector-curvature="0"
           id="path3040"
           d="M 535.438,124.73131 C 546.02214,12.893477 471.61547,-59.762188 324.90825,-85.798359"
           style="fill:none;stroke:#ffffff;stroke-width:32.10599899;stroke-linecap:butt;stroke-linejoin:miter;stroke-miterlimit:4;stroke-opacity:1;stroke-dasharray:none" />
        <path
           style="fill:#ffffff;stroke:#ffffff;stroke-width:9.47383976;stroke-linecap:butt;stroke-linejoin:miter;stroke-miterlimit:4;stroke-opacity:1;stroke-dasharray:none"
           d="M 748.223,339.15557 537.69324,128.62581"
           id="path3872"
           inkscape:connector-curvature="0" />
        <path
           style="fill:none;stroke:#ffffff;stroke-width:9.47383976;stroke-linecap:butt;stroke-linejoin:miter;stroke-miterlimit:4;stroke-opacity:1;stroke-dasharray:none"
           d="M -93.896065,339.15557 116.6337,128.62581"
           id="path3870"
           inkscape:connector-curvature="0" />
        <path
           style="fill:#ffffff;stroke:#ffffff;stroke-width:9.47383976;stroke-linecap:butt;stroke-linejoin:miter;stroke-miterlimit:4;stroke-opacity:1;stroke-dasharray:none"
           d="m 748.223,339.15559 -210.52976,0"
           id="path3812"
           inkscape:connector-curvature="0" />
        <path
           style="fill:none;stroke:#ffffff;stroke-width:32.10599899;stroke-linecap:butt;stroke-linejoin:miter;stroke-miterlimit:4;stroke-opacity:1;stroke-dasharray:none"
           d="m 537.69324,339.15559 -210.52977,0"
           id="path3810"
           inkscape:connector-curvature="0" />
        <path
           style="fill:none;stroke:#ffffff;stroke-width:32.10599899;stroke-linecap:butt;stroke-linejoin:miter;stroke-miterlimit:4;stroke-opacity:1;stroke-dasharray:none"
           d="m 327.16347,339.15559 -210.52977,0"
           id="path3807"
           inkscape:connector-curvature="0" />
        <path
           style="fill:#ffffff;stroke:#ffffff;stroke-width:9.47383976;stroke-linecap:butt;stroke-linejoin:miter;stroke-miterlimit:4;stroke-opacity:1;stroke-dasharray:none"
           d="m -93.896065,339.15559 210.529765,0"
           id="path3805"
           inkscape:connector-curvature="0" />
        <path
           style="fill:none;stroke:#ffffff;stroke-width:32.10599899;stroke-linecap:butt;stroke-linejoin:miter;stroke-miterlimit:4;stroke-opacity:1;stroke-dasharray:none"
           d="M 116.6337,124.73131 C 106.04958,12.893502 180.45624,-59.762163 327.16347,-85.798333"
           id="path3031"
           inkscape:connector-curvature="0"
           sodipodi:nodetypes="cc" />
        <path
           style="fill:#999999;stroke:#ffffff;stroke-width:9.47383976;stroke-linecap:butt;stroke-linejoin:miter;stroke-miterlimit:4;stroke-opacity:1;stroke-dasharray:none"
           d="M -93.896065,339.15559 116.6337,549.68536"
           id="path3797"
           inkscape:connector-curvature="0" />
        <path
           style="fill:#ffffff;stroke:#ffffff;stroke-width:9.47383976;stroke-linecap:butt;stroke-linejoin:miter;stroke-miterlimit:4;stroke-opacity:1;stroke-dasharray:none"
           d="M 748.223,339.15559 537.69324,549.68536"
           id="path3801"
           inkscape:connector-curvature="0" />
        <path
           style="fill:none;stroke:#ffffff;stroke-width:9.47383976;stroke-linecap:butt;stroke-linejoin:miter;stroke-miterlimit:4;stroke-opacity:1;stroke-dasharray:none"
           d="M 327.16347,339.15566 116.6337,128.62589"
           id="path3813"
           inkscape:connector-curvature="0" />
        <path
           style="fill:#ffffff;stroke:#ffffff;stroke-width:9.47383976;stroke-linecap:butt;stroke-linejoin:miter;stroke-miterlimit:4;stroke-opacity:1;stroke-dasharray:none"
           d="M 327.16347,339.15566 537.69324,128.62589"
           id="path3819"
           inkscape:connector-curvature="0" />
        <path
           style="fill:#ffffff;stroke:#ffffff;stroke-width:9.47383976;stroke-linecap:butt;stroke-linejoin:miter;stroke-miterlimit:4;stroke-opacity:1;stroke-dasharray:none"
           d="m 327.16347,339.15566 0,210.52976"
           id="path3039"
           inkscape:connector-curvature="0" />
        <path
           style="fill:#ffffff;stroke:#ffffff;stroke-width:9.47383976;stroke-linecap:butt;stroke-linejoin:miter;stroke-miterlimit:4;stroke-opacity:1;stroke-dasharray:none"
           d="m 327.16347,128.62589 0,210.52977"
           id="path3862"
           inkscape:connector-curvature="0" />
        <path
           style="fill:#ffffff;stroke:#ffffff;stroke-width:10.61509895;stroke-linecap:butt;stroke-linejoin:miter;stroke-miterlimit:4;stroke-opacity:1;stroke-dasharray:none"
           d="M 535.9435,130.37564 642.15428,24.16485"
           id="path3822"
           inkscape:connector-curvature="0" />
        <path
           style="fill:#000000;stroke:#ffffff;stroke-width:10.61509895;stroke-linecap:butt;stroke-linejoin:miter;stroke-miterlimit:4;stroke-opacity:1;stroke-dasharray:none"
           d="M 118.6975,130.68969 23.653158,35.645346"
           id="path3817"
           inkscape:connector-curvature="0" />
        <path
           style="fill:none;stroke:#ffffff;stroke-width:9.47383976;stroke-linecap:butt;stroke-linejoin:miter;stroke-miterlimit:4;stroke-opacity:1;stroke-dasharray:none"
           d="M 116.6337,549.68542 327.16347,339.15566"
           id="path3815"
           inkscape:connector-curvature="0" />
        <path
           style="fill:none;stroke:#ffffff;stroke-width:10.61509895;stroke-linecap:butt;stroke-linejoin:miter;stroke-miterlimit:4;stroke-opacity:1;stroke-dasharray:none"
           d="M 535.89863,547.89081 640.51421,652.50639"
           id="path3811"
           inkscape:connector-curvature="0" />
        <path
           style="fill:#ffffff;stroke:#ffffff;stroke-width:9.47383976;stroke-linecap:butt;stroke-linejoin:miter;stroke-miterlimit:4;stroke-opacity:1;stroke-dasharray:none"
           d="M 327.16347,339.15566 537.69324,549.68542"
           id="path3809"
           inkscape:connector-curvature="0" />
        <path
           style="fill:none;stroke:#ffffff;stroke-width:9.47383976;stroke-linecap:butt;stroke-linejoin:miter;stroke-miterlimit:4;stroke-opacity:1;stroke-dasharray:none"
           d="m 327.16347,-81.903877 0,210.529767"
           id="path3926"
           inkscape:connector-curvature="0" />
        <path
           style="fill:#ffffff;stroke:#ffffff;stroke-width:32.10599899;stroke-linecap:butt;stroke-linejoin:miter;stroke-miterlimit:4;stroke-opacity:1;stroke-dasharray:none"
           d="m 537.69324,128.62589 0,210.52977 0,210.52976"
           id="path3905"
           inkscape:connector-curvature="0" />
        <path
           style="fill:none;stroke:#ffffff;stroke-width:32.10599899;stroke-linecap:butt;stroke-linejoin:miter;stroke-miterlimit:4;stroke-opacity:1;stroke-dasharray:none"
           d="m 116.6337,128.62589 0,210.52977 0,210.52976"
           id="path3901"
           inkscape:connector-curvature="0" />
        <path
           style="fill:none;stroke:#ffffff;stroke-width:9.47383976;stroke-linecap:butt;stroke-linejoin:miter;stroke-miterlimit:4;stroke-opacity:1;stroke-dasharray:none"
           d="m 116.6337,549.68542 210.52977,0 210.52977,0"
           id="path3880"
           inkscape:connector-curvature="0" />
        <path
           style="fill:none;stroke:#ffffff;stroke-width:9.47383976;stroke-linecap:butt;stroke-linejoin:miter;stroke-miterlimit:4;stroke-opacity:1;stroke-dasharray:none"
           d="m 114.50703,128.62589 210.52977,0 210.52976,0"
           id="path3878"
           inkscape:connector-curvature="0" />
        <path
           style="fill:none;stroke:#ffffff;stroke-width:10.61509895;stroke-linecap:butt;stroke-linejoin:miter;stroke-miterlimit:4;stroke-opacity:1;stroke-dasharray:none"
           d="M 8.8473017,654.10195 118.33892,547.9802"
           id="path3868"
           inkscape:connector-curvature="0" />
        <path
           style="fill:none;stroke:#ffffff;stroke-width:9.47383976;stroke-linecap:butt;stroke-linejoin:miter;stroke-miterlimit:4;stroke-opacity:1;stroke-dasharray:none"
           d="m 327.16347,549.68542 0,210.52977"
           id="path3849"
           inkscape:connector-curvature="0" />
        <path
           sodipodi:type="arc"
           style="fill:#e6e6e6;fill-rule:evenodd;stroke:#ffffff;stroke-width:5;stroke-linecap:butt;stroke-linejoin:miter;stroke-miterlimit:4;stroke-opacity:1;stroke-dasharray:none"
           id="path2987"
           sodipodi:cx="180"
           sodipodi:cy="332.36218"
           sodipodi:rx="20"
           sodipodi:ry="20"
           d="m 200,332.36218 a 20,20 0 1 1 -40,0 20,20 0 1 1 40,0 z"
           transform="matrix(1.0526488,0,0,1.0526488,137.68667,-9.2011782)" />
        <path
           transform="matrix(1.0526488,0,0,1.0526488,348.21644,-9.2011782)"
           d="m 200,332.36218 a 20,20 0 1 1 -40,0 20,20 0 1 1 40,0 z"
           sodipodi:ry="20"
           sodipodi:rx="20"
           sodipodi:cy="332.36218"
           sodipodi:cx="180"
           id="path3757"
           style="fill:#ffffff;fill-rule:evenodd;stroke:#ffffff;stroke-width:5;stroke-linecap:butt;stroke-linejoin:miter;stroke-miterlimit:4;stroke-opacity:1;stroke-dasharray:none"
           sodipodi:type="arc" />
        <path
           transform="matrix(1.0526488,0,0,1.0526488,-74.346724,-9.2011782)"
           d="m 200,332.36218 a 20,20 0 1 1 -40,0 20,20 0 1 1 40,0 z"
           sodipodi:ry="20"
           sodipodi:rx="20"
           sodipodi:cy="332.36218"
           sodipodi:cx="180"
           id="path3759"
           style="fill:#e6e6e6;fill-rule:evenodd;stroke:#ffffff;stroke-width:5;stroke-linecap:butt;stroke-linejoin:miter;stroke-miterlimit:4;stroke-opacity:1;stroke-dasharray:none"
           sodipodi:type="arc" />
        <path
           sodipodi:type="arc"
           style="fill:#ffffff;fill-rule:evenodd;stroke:#ffffff;stroke-width:5;stroke-linecap:butt;stroke-linejoin:miter;stroke-miterlimit:4;stroke-opacity:1;stroke-dasharray:none"
           id="path3761"
           sodipodi:cx="180"
           sodipodi:cy="332.36218"
           sodipodi:rx="20"
           sodipodi:ry="20"
           d="m 200,332.36218 a 20,20 0 1 1 -40,0 20,20 0 1 1 40,0 z"
           transform="matrix(1.0526488,0,0,1.0526488,-281.86907,-9.2011782)" />
        <path
           sodipodi:type="arc"
           style="fill:#ffffff;fill-rule:evenodd;stroke:#ffffff;stroke-width:5;stroke-linecap:butt;stroke-linejoin:miter;stroke-miterlimit:4;stroke-opacity:1;stroke-dasharray:none"
           id="path3763"
           sodipodi:cx="180"
           sodipodi:cy="332.36218"
           sodipodi:rx="20"
           sodipodi:ry="20"
           d="m 200,332.36218 a 20,20 0 1 1 -40,0 20,20 0 1 1 40,0 z"
           transform="matrix(1.0501635,0,0,1.0527952,560.64471,-9.2495701)" />
        <path
           transform="matrix(1.0526488,0,0,1.0526488,139.19046,-224.24229)"
           d="m 200,332.36218 a 20,20 0 1 1 -40,0 20,20 0 1 1 40,0 z"
           sodipodi:ry="20"
           sodipodi:rx="20"
           sodipodi:cy="332.36218"
           sodipodi:cx="180"
           id="path3778"
           style="fill:#ffffff;fill-rule:evenodd;stroke:#ffffff;stroke-width:5;stroke-linecap:butt;stroke-linejoin:miter;stroke-miterlimit:4;stroke-opacity:1;stroke-dasharray:none"
           sodipodi:type="arc" />
        <path
           sodipodi:type="arc"
           style="fill:#ffffff;fill-rule:evenodd;stroke:#ffffff;stroke-width:5;stroke-linecap:butt;stroke-linejoin:miter;stroke-miterlimit:4;stroke-opacity:1;stroke-dasharray:none"
           id="path3780"
           sodipodi:cx="180"
           sodipodi:cy="332.36218"
           sodipodi:rx="20"
           sodipodi:ry="20"
           d="m 200,332.36218 a 20,20 0 1 1 -40,0 20,20 0 1 1 40,0 z"
           transform="matrix(1.0526488,0,0,1.0526488,351.22401,-222.73851)" />
        <path
           sodipodi:type="arc"
           style="fill:#ffffff;fill-rule:evenodd;stroke:#ffffff;stroke-width:5;stroke-linecap:butt;stroke-linejoin:miter;stroke-miterlimit:4;stroke-opacity:1;stroke-dasharray:none"
           id="path3784"
           sodipodi:cx="180"
           sodipodi:cy="332.36218"
           sodipodi:rx="20"
           sodipodi:ry="20"
           d="m 200,332.36218 a 20,20 0 1 1 -40,0 20,20 0 1 1 40,0 z"
           transform="matrix(1.0526488,0,0,1.0526488,137.68667,201.32858)" />
        <path
           transform="matrix(1.0526488,0,0,1.0526488,348.216,201.32858)"
           d="m 200,332.36218 a 20,20 0 1 1 -40,0 20,20 0 1 1 40,0 z"
           sodipodi:ry="20"
           sodipodi:rx="20"
           sodipodi:cy="332.36218"
           sodipodi:cx="180"
           id="path3786"
           style="fill:#ffffff;fill-rule:evenodd;stroke:#ffffff;stroke-width:5;stroke-linecap:butt;stroke-linejoin:miter;stroke-miterlimit:4;stroke-opacity:1;stroke-dasharray:none"
           sodipodi:type="arc" />
        <path
           transform="matrix(1.0526488,0,0,1.0526488,-74.346875,201.32858)"
           d="m 200,332.36218 a 20,20 0 1 1 -40,0 20,20 0 1 1 40,0 z"
           sodipodi:ry="20"
           sodipodi:rx="20"
           sodipodi:cy="332.36218"
           sodipodi:cx="180"
           id="path3788"
           style="fill:#e6e6e6;fill-rule:evenodd;stroke:#808080;stroke-width:5;stroke-linecap:butt;stroke-linejoin:miter;stroke-miterlimit:4;stroke-opacity:1;stroke-dasharray:none"
           sodipodi:type="arc" />
        <path
           transform="matrix(1.0526488,0,0,1.0526488,136.18289,410.35457)"
           d="m 200,332.36218 a 20,20 0 1 1 -40,0 20,20 0 1 1 40,0 z"
           sodipodi:ry="20"
           sodipodi:rx="20"
           sodipodi:cy="332.36218"
           sodipodi:cx="180"
           id="path3790"
           style="fill:#e6e6e6;fill-rule:evenodd;stroke:#808080;stroke-width:5;stroke-linecap:butt;stroke-linejoin:miter;stroke-miterlimit:4;stroke-opacity:1;stroke-dasharray:none"
           sodipodi:type="arc" />
        <path
           sodipodi:type="arc"
           style="fill:#e6e6e6;fill-rule:evenodd;stroke:#ffffff;stroke-width:5;stroke-linecap:butt;stroke-linejoin:miter;stroke-miterlimit:4;stroke-opacity:1;stroke-dasharray:none"
           id="path3792"
           sodipodi:cx="180"
           sodipodi:cy="332.36218"
           sodipodi:rx="20"
           sodipodi:ry="20"
           d="m 200,332.36218 a 20,20 0 1 1 -40,0 20,20 0 1 1 40,0 z"
           transform="matrix(1.0526488,0,0,1.0526488,136.18305,-430.26071)" />
        <path
           transform="matrix(1.0526488,0,0,1.0526488,-172.0028,-315.52135)"
           d="m 200,332.36218 a 20,20 0 1 1 -40,0 20,20 0 1 1 40,0 z"
           sodipodi:ry="20"
           sodipodi:rx="20"
           sodipodi:cy="332.36218"
           sodipodi:cx="180"
           id="path3794"
           style="fill:#ffffff;fill-rule:evenodd;stroke:#ffffff;stroke-width:5;stroke-linecap:butt;stroke-linejoin:miter;stroke-miterlimit:4;stroke-opacity:1;stroke-dasharray:none"
           sodipodi:type="arc" />
        <path
           sodipodi:type="arc"
           style="fill:#ffffff;fill-rule:evenodd;stroke:#ffffff;stroke-width:5;stroke-linecap:butt;stroke-linejoin:miter;stroke-miterlimit:4;stroke-opacity:1;stroke-dasharray:none"
           id="path3796"
           sodipodi:cx="180"
           sodipodi:cy="332.36218"
           sodipodi:rx="20"
           sodipodi:ry="20"
           d="m 200,332.36218 a 20,20 0 1 1 -40,0 20,20 0 1 1 40,0 z"
           transform="matrix(1.0526488,0,0,1.0526488,440.63698,-315.52156)" />
        <path
           sodipodi:type="arc"
           style="fill:#ffffff;fill-rule:evenodd;stroke:#ffffff;stroke-width:5;stroke-linecap:butt;stroke-linejoin:miter;stroke-miterlimit:4;stroke-opacity:1;stroke-dasharray:none"
           id="path3798"
           sodipodi:cx="180"
           sodipodi:cy="332.36218"
           sodipodi:rx="20"
           sodipodi:ry="20"
           d="m 200,332.36218 a 20,20 0 1 1 -40,0 20,20 0 1 1 40,0 z"
           transform="matrix(1.0526488,0,0,1.0526488,-172.00337,297.48129)" />
        <path
           transform="matrix(1.0526488,0,0,1.0526488,440.63698,297.48129)"
           d="m 200,332.36218 a 20,20 0 1 1 -40,0 20,20 0 1 1 40,0 z"
           sodipodi:ry="20"
           sodipodi:rx="20"
           sodipodi:cy="332.36218"
           sodipodi:cx="180"
           id="path3800"
           style="fill:#ffffff;fill-rule:evenodd;stroke:#ffffff;stroke-width:5;stroke-linecap:butt;stroke-linejoin:miter;stroke-miterlimit:4;stroke-opacity:1;stroke-dasharray:none"
           sodipodi:type="arc" />
        <path
           transform="matrix(1.7698571,0,0,1.7030714,219.11834,-228.55286)"
           d="m 200,332.36218 a 20,20 0 1 1 -40,0 20,20 0 1 1 40,0 z"
           sodipodi:ry="20"
           sodipodi:rx="20"
           sodipodi:cy="332.36218"
           sodipodi:cx="180"
           id="path3911"
           style="fill:#ffffff;fill-rule:evenodd;stroke:#ffffff;stroke-width:5;stroke-linecap:butt;stroke-linejoin:miter;stroke-miterlimit:4;stroke-opacity:1;stroke-dasharray:none"
           sodipodi:type="arc" />
        <path
           sodipodi:type="arc"
           style="fill:#ffffff;fill-rule:evenodd;stroke:#ffffff;stroke-width:5;stroke-linecap:butt;stroke-linejoin:miter;stroke-miterlimit:4;stroke-opacity:1;stroke-dasharray:none"
           id="path3909"
           sodipodi:cx="180"
           sodipodi:cy="332.36218"
           sodipodi:rx="20"
           sodipodi:ry="20"
           d="m 200,332.36218 a 20,20 0 1 1 -40,0 20,20 0 1 1 40,0 z"
           transform="matrix(1.7698571,0,0,1.7030714,219.11934,-436.07486)" />
        <path
           sodipodi:type="arc"
           style="fill:#ffffff;fill-rule:evenodd;stroke:#ffffff;stroke-width:5.00000525;stroke-linecap:butt;stroke-linejoin:miter;stroke-miterlimit:4;stroke-opacity:1;stroke-dasharray:none"
           id="path3782"
           sodipodi:cx="180"
           sodipodi:cy="332.36218"
           sodipodi:rx="20"
           sodipodi:ry="20"
           d="m 200,332.36218 a 20,20 0 1 1 -40,0 20,20 0 1 1 40,0 z"
           transform="matrix(1.7698569,0,0,1.7030711,-203.44462,-436.07476)" />
        <path
           sodipodi:type="arc"
           style="fill:#ffffff;fill-rule:evenodd;stroke:#ffffff;stroke-width:5;stroke-linecap:butt;stroke-linejoin:miter;stroke-miterlimit:4;stroke-opacity:1;stroke-dasharray:none"
           id="path3913"
           sodipodi:cx="180"
           sodipodi:cy="332.36218"
           sodipodi:rx="20"
           sodipodi:ry="20"
           d="m 200,332.36218 a 20,20 0 1 1 -40,0 20,20 0 1 1 40,0 z"
           transform="matrix(1.7698571,0,0,1.7030714,-203.44466,-16.518864)" />
        <path
           transform="matrix(1.7698571,0,0,1.7030714,7.0853419,191.00314)"
           d="m 200,332.36218 a 20,20 0 1 1 -40,0 20,20 0 1 1 40,0 z"
           sodipodi:ry="20"
           sodipodi:rx="20"
           sodipodi:cy="332.36218"
           sodipodi:cx="180"
           id="path3068"
           style="fill:#ffffff;fill-rule:evenodd;stroke:#ffffff;stroke-width:5;stroke-linecap:butt;stroke-linejoin:miter;stroke-miterlimit:4;stroke-opacity:1;stroke-dasharray:none"
           sodipodi:type="arc" />
        <path
           transform="matrix(1.7698571,0,0,1.7030714,7.0853419,-645.67286)"
           d="m 200,332.36218 a 20,20 0 1 1 -40,0 20,20 0 1 1 40,0 z"
           sodipodi:ry="20"
           sodipodi:rx="20"
           sodipodi:cy="332.36218"
           sodipodi:cx="180"
           id="path3070"
           style="fill:#ffffff;fill-rule:evenodd;stroke:#ffffff;stroke-width:5;stroke-linecap:butt;stroke-linejoin:miter;stroke-miterlimit:4;stroke-opacity:1;stroke-dasharray:none"
           sodipodi:type="arc" />
        <path
           sodipodi:type="arc"
           style="fill:#ffffff;fill-rule:evenodd;stroke:#ffffff;stroke-width:5;stroke-linecap:butt;stroke-linejoin:miter;stroke-miterlimit:4;stroke-opacity:1;stroke-dasharray:none"
           id="path3072"
           sodipodi:cx="180"
           sodipodi:cy="332.36218"
           sodipodi:rx="20"
           sodipodi:ry="20"
           d="m 200,332.36218 a 20,20 0 1 1 -40,0 20,20 0 1 1 40,0 z"
           transform="matrix(1.7698571,0,0,1.7030714,219.11834,-16.518864)" />
        <path
           sodipodi:type="arc"
           style="fill:#ffffff;fill-rule:evenodd;stroke:#ffffff;stroke-width:5;stroke-linecap:butt;stroke-linejoin:miter;stroke-miterlimit:4;stroke-opacity:1;stroke-dasharray:none"
           id="path3074"
           sodipodi:cx="180"
           sodipodi:cy="332.36218"
           sodipodi:rx="20"
           sodipodi:ry="20"
           d="m 200,332.36218 a 20,20 0 1 1 -40,0 20,20 0 1 1 40,0 z"
           transform="matrix(1.7698571,0,0,1.7030714,-203.44466,-228.55286)" />
        <path
           transform="matrix(1.7698571,0,0,1.7030714,7.0853419,-228.55286)"
           d="m 200,332.36218 a 20,20 0 1 1 -40,0 20,20 0 1 1 40,0 z"
           sodipodi:ry="20"
           sodipodi:rx="20"
           sodipodi:cy="332.36218"
           sodipodi:cx="180"
           id="path3803"
           style="fill:#ffffff;fill-rule:evenodd;stroke:#ffffff;stroke-width:5;stroke-linecap:butt;stroke-linejoin:miter;stroke-miterlimit:4;stroke-opacity:1;stroke-dasharray:none"
           sodipodi:type="arc" />
        <path
           style="fill:none;stroke:#ffffff;stroke-width:10.61509895;stroke-linecap:butt;stroke-linejoin:miter;stroke-miterlimit:4;stroke-opacity:1;stroke-dasharray:none"
           d="M 16.651814,29.650359 323.31022,-88.295181 629.96862,29.650359 747.91416,336.30876 629.96862,642.96717"
           id="path3927"
           inkscape:connector-curvature="0" />
        <path
           style="fill:#ffffff;stroke:#ffffff;stroke-width:10.61509895;stroke-linecap:butt;stroke-linejoin:miter;stroke-miterlimit:4;stroke-opacity:1;stroke-dasharray:none"
           d="M 629.96862,642.96717 323.31022,760.91271"
           id="path3929"
           inkscape:connector-curvature="0" />
        <path
           style="fill:none;stroke:#ffffff;stroke-width:10.61509895;stroke-linecap:butt;stroke-linejoin:miter;stroke-miterlimit:4;stroke-opacity:1;stroke-dasharray:none"
           d="M 323.31022,760.91271 16.651814,642.96717 -101.29373,336.30876 16.651814,29.650359"
           id="path3931"
           inkscape:connector-curvature="0" />
      </g>
    </g>
  </g>
</svg>
